<?xml version="1.0" encoding="UTF-8"?>
<!DOCTYPE svg PUBLIC "-//W3C//DTD SVG 1.1//EN" "http://www.w3.org/Graphics/SVG/1.1/DTD/svg11.dtd">
<svg xmlns="http://www.w3.org/2000/svg" version="1.1" width="512px" height="512px" style="shape-rendering:geometricPrecision; text-rendering:geometricPrecision; image-rendering:optimizeQuality; fill-rule:evenodd; clip-rule:evenodd" xmlns:xlink="http://www.w3.org/1999/xlink">
<g><path style="opacity:0.973" fill="#000000" d="M 249.5,-0.5 C 253.5,-0.5 257.5,-0.5 261.5,-0.5C 290.077,26.575 318.243,54.2417 346,82.5C 351.168,90.9878 350.335,98.8211 343.5,106C 336.5,110.667 329.5,110.667 322.5,106C 305.667,89.1667 288.833,72.3333 272,55.5C 271.5,116.499 271.333,177.499 271.5,238.5C 332.501,238.667 393.501,238.5 454.5,238C 438,221.5 421.5,205 405,188.5C 398.822,176.703 401.655,167.87 413.5,162C 418.403,161.063 423.07,161.73 427.5,164C 456.092,192.09 484.092,220.59 511.5,249.5C 511.5,253.167 511.5,256.833 511.5,260.5C 510.59,262.019 509.757,263.685 509,265.5C 482.5,292 456,318.5 429.5,345C 419.914,351.347 411.414,350.18 404,341.5C 401.185,336.317 400.852,330.984 403,325.5C 420.138,307.362 437.638,289.528 455.5,272C 394.168,271.5 332.834,271.333 271.5,271.5C 271.333,332.834 271.5,394.168 272,455.5C 289.167,438.333 306.333,421.167 323.5,404C 332.482,399.646 340.315,401.146 347,408.5C 350.698,415.915 350.031,422.915 345,429.5C 318.833,455.667 292.667,481.833 266.5,508C 264.568,509.459 262.568,510.625 260.5,511.5C 257.167,511.5 253.833,511.5 250.5,511.5C 248.432,510.625 246.432,509.459 244.5,508C 218.333,481.833 192.167,455.667 166,429.5C 159.388,420.232 160.222,411.732 168.5,404C 174.861,400.728 181.194,400.728 187.5,404C 204.667,421.167 221.833,438.333 239,455.5C 239.5,394.168 239.667,332.834 239.5,271.5C 178.166,271.333 116.832,271.5 55.5,272C 73.3622,289.528 90.8622,307.362 108,325.5C 111.551,338.934 106.551,346.934 93,349.5C 88.7065,349.112 84.8731,347.612 81.5,345C 55,318.5 28.5,292 2,265.5C 1.24316,263.685 0.409824,262.019 -0.5,260.5C -0.5,256.833 -0.5,253.167 -0.5,249.5C 26.9084,220.59 54.9084,192.09 83.5,164C 91.855,159.853 99.355,161.02 106,167.5C 110.667,174.5 110.667,181.5 106,188.5C 89.5,205 73,221.5 56.5,238C 117.499,238.5 178.499,238.667 239.5,238.5C 239.667,177.499 239.5,116.499 239,55.5C 222.167,72.3333 205.333,89.1667 188.5,106C 177.812,111.987 169.312,109.821 163,99.5C 160.766,93.4733 161.433,87.8066 165,82.5C 192.757,54.2417 220.923,26.575 249.5,-0.5 Z"/></g>
</svg>
