<svg xmlns="http://www.w3.org/2000/svg" width="4107" height="400" viewBox="0 0 4107 400" version="1.1"><path d="M 479.090 15.250 C 478.306 17.302, 443.535 98.241, 428.505 133 C 413.185 168.430, 411.687 171.224, 406.517 173.991 C 405.133 174.732, 404 175.712, 404 176.169 C 404 176.626, 411.200 177, 420 177 C 434.837 177, 439.321 176.189, 433.935 174.479 C 428.866 172.871, 429.716 167.876, 438.740 146.250 L 444.268 133 472.189 133 L 500.110 133 502.656 138.750 C 508.913 152.878, 514 166.464, 514 169.045 C 514 171.023, 513.038 172.613, 510.750 174.416 L 507.500 176.978 533.500 176.930 C 554.029 176.892, 559.099 176.632, 557.596 175.691 C 552.298 172.378, 549.058 168.445, 545.747 161.309 C 542.176 153.614, 525.262 114.879, 496.614 48.785 C 488.576 30.242, 482 14.604, 482 14.035 C 482 12.124, 479.959 12.976, 479.090 15.250 M 185.628 17.079 C 170.096 20.895, 158.355 29.747, 152.641 41.949 C 150.090 47.397, 149.506 50.045, 149.171 57.677 C 148.672 69.040, 150.585 75.857, 156.543 83.952 C 162.627 92.216, 172.258 98.937, 191.600 108.417 C 216.364 120.554, 220.483 124.921, 220.447 139 C 220.430 145.387, 219.992 147.295, 217.497 151.856 C 211.822 162.230, 202.896 166.598, 189.016 165.795 C 178.927 165.211, 171.542 161.720, 163.851 153.900 C 158.236 148.190, 150 133.910, 150 129.884 C 150 128.848, 149.482 128, 148.849 128 C 148.016 128, 147.877 130.691, 148.344 137.750 C 148.699 143.113, 148.992 152.131, 148.995 157.792 L 149 168.084 155.739 171.107 C 167.541 176.402, 179.710 179, 192.715 179 C 206.154 179, 213.534 177.384, 223.170 172.333 C 231.952 167.729, 241.027 158.277, 245.273 149.312 C 248.394 142.724, 248.500 142.073, 248.500 129.500 C 248.500 117.480, 248.297 116.068, 245.812 110.765 C 239.722 97.770, 233.931 93.288, 204.983 79.162 C 177.107 65.560, 173.778 62.504, 173.778 50.513 C 173.778 36.864, 182.840 28.660, 197.793 28.772 C 213.305 28.888, 228.600 39.658, 233.718 54.069 C 234.681 56.781, 235.882 59, 236.387 59 C 236.926 59, 237.036 54.614, 236.652 48.344 C 236.293 42.484, 236 34.584, 236 30.789 L 236 23.890 230.250 21.330 C 222.802 18.015, 208.249 15.010, 200 15.086 C 196.425 15.118, 189.958 16.015, 185.628 17.079 M 7.686 19.950 C 9.439 21.019, 11.351 22.787, 11.936 23.881 C 12.648 25.210, 13.007 42.871, 13.020 77.184 C 13.031 105.972, 13.479 131.573, 14.040 135.500 C 16.791 154.738, 30.261 169.428, 51.393 176.238 C 60.335 179.119, 85.010 179.857, 94 177.512 C 113.002 172.555, 124.656 160.886, 129.643 141.825 C 131.047 136.459, 131.389 127.055, 131.899 79.814 L 132.500 24.128 135.437 21.064 L 138.374 18 124.110 18 L 109.846 18 112.768 20.922 L 115.690 23.844 116.351 58.172 C 117.275 106.157, 117.153 126.118, 115.885 134.379 C 112.687 155.224, 98.847 166.010, 76.904 164.759 C 61.340 163.871, 51.532 156.856, 47.136 143.465 C 45.023 137.030, 44.971 135.556, 44.975 82.685 C 44.978 52.883, 44.984 27.541, 44.990 26.369 C 44.995 25.196, 46.435 22.834, 48.190 21.119 L 51.380 18 27.940 18.004 L 4.500 18.007 7.686 19.950 M 266.500 20.991 L 269.500 24.130 269.795 94.315 C 269.957 132.917, 269.815 166.013, 269.479 167.862 C 269.143 169.711, 267.772 172.319, 266.434 173.657 C 265.095 174.996, 264 176.295, 264 176.545 C 264 176.795, 280.087 176.998, 299.750 176.996 C 339.417 176.992, 347.635 176.207, 362.710 170.983 C 394.998 159.796, 415.526 133.891, 418.601 100.454 C 420.327 81.687, 411.599 58.571, 397.157 43.660 C 386.571 32.731, 374.301 25.865, 357.011 21.195 C 347.644 18.664, 346.866 18.620, 305.500 18.239 L 263.500 17.852 266.500 20.991 M 1369.471 88 C 1369.471 123.475, 1369.596 137.988, 1369.750 120.250 C 1369.903 102.513, 1369.903 73.488, 1369.750 55.750 C 1369.596 38.013, 1369.471 52.525, 1369.471 88 M 2759.430 47 C 2759.430 59.925, 2759.573 65.213, 2759.747 58.750 C 2759.921 52.287, 2759.921 41.712, 2759.747 35.250 C 2759.573 28.787, 2759.430 34.075, 2759.430 47 M 3120.435 49 C 3120.435 63.025, 3120.575 68.763, 3120.747 61.750 C 3120.919 54.738, 3120.919 43.263, 3120.747 36.250 C 3120.575 29.238, 3120.435 34.975, 3120.435 49 M 300 97.628 L 300 164.256 316.750 163.712 C 335.795 163.093, 342.958 161.663, 353.792 156.318 C 372.599 147.039, 383.268 127.764, 384.697 100.480 C 386.506 65.956, 367.978 38.763, 338.371 32.490 C 334.049 31.575, 325.658 31.028, 315.750 31.017 L 300 31 300 97.628 M 1462.472 101 C 1462.472 137.575, 1462.597 152.537, 1462.750 134.250 C 1462.902 115.962, 1462.902 86.037, 1462.750 67.750 C 1462.597 49.462, 1462.472 64.425, 1462.472 101 M 2386.472 101 C 2386.472 137.575, 2386.597 152.537, 2386.750 134.250 C 2386.902 115.962, 2386.902 86.037, 2386.750 67.750 C 2386.597 49.462, 2386.472 64.425, 2386.472 101 M 468.578 73.182 C 467.011 77.207, 462.190 89.189, 457.864 99.809 C 453.539 110.429, 450 119.317, 450 119.559 C 450 119.802, 459.900 120, 472 120 C 484.100 120, 494 119.739, 494 119.421 C 494 119.102, 489.500 108.091, 484 94.951 C 478.500 81.811, 474 70.683, 474 70.221 C 474 69.760, 473.421 68.590, 472.713 67.623 C 471.574 66.065, 471.100 66.701, 468.578 73.182 M 1494.463 118 C 1494.463 145.225, 1494.592 156.363, 1494.749 142.750 C 1494.906 129.137, 1494.906 106.862, 1494.749 93.250 C 1494.592 79.637, 1494.463 90.775, 1494.463 118 M 1867.453 105.500 C 1867.453 125.850, 1867.586 134.033, 1867.749 123.685 C 1867.912 113.336, 1867.911 96.686, 1867.748 86.685 C 1867.585 76.683, 1867.452 85.150, 1867.453 105.500 M 1884.450 103 C 1884.450 121.975, 1884.584 129.738, 1884.748 120.250 C 1884.913 110.762, 1884.913 95.237, 1884.748 85.750 C 1884.584 76.262, 1884.450 84.025, 1884.450 103 M 1945.463 118 C 1945.463 145.225, 1945.592 156.363, 1945.749 142.750 C 1945.906 129.137, 1945.906 106.862, 1945.749 93.250 C 1945.592 79.637, 1945.463 90.775, 1945.463 118 M 3419.463 118 C 3419.463 145.225, 3419.592 156.363, 3419.749 142.750 C 3419.906 129.137, 3419.906 106.862, 3419.749 93.250 C 3419.592 79.637, 3419.463 90.775, 3419.463 118 M 3625.450 103.500 C 3625.451 122.750, 3625.585 130.483, 3625.749 120.685 C 3625.913 110.888, 3625.912 95.138, 3625.748 85.685 C 3625.584 76.233, 3625.450 84.250, 3625.450 103.500 M 3686.450 103.500 C 3686.451 122.750, 3686.585 130.483, 3686.749 120.685 C 3686.913 110.888, 3686.912 95.138, 3686.748 85.685 C 3686.584 76.233, 3686.450 84.250, 3686.450 103.500 M 3846.451 104.500 C 3846.451 124.300, 3846.585 132.542, 3846.748 122.815 C 3846.912 113.088, 3846.912 96.888, 3846.749 86.815 C 3846.586 76.742, 3846.452 84.700, 3846.451 104.500 M 3907.450 103.500 C 3907.451 122.750, 3907.585 130.483, 3907.749 120.685 C 3907.913 110.888, 3907.912 95.138, 3907.748 85.685 C 3907.584 76.233, 3907.450 84.250, 3907.450 103.500 M 1754.463 118.500 C 1754.463 145.450, 1754.592 156.331, 1754.749 142.681 C 1754.907 129.030, 1754.906 106.980, 1754.749 93.681 C 1754.592 80.381, 1754.463 91.550, 1754.463 118.500 M 2949.463 118 C 2949.463 144.675, 2949.592 155.588, 2949.749 142.250 C 2949.907 128.913, 2949.907 107.088, 2949.749 93.750 C 2949.592 80.412, 2949.463 91.325, 2949.463 118 M 1690.445 113.500 C 1690.444 130.550, 1690.581 137.666, 1690.748 129.312 C 1690.915 120.959, 1690.915 107.009, 1690.748 98.312 C 1690.582 89.616, 1690.445 96.450, 1690.445 113.500 M 1822.442 112 C 1822.442 128.225, 1822.580 134.862, 1822.748 126.750 C 1822.916 118.637, 1822.916 105.362, 1822.748 97.250 C 1822.580 89.137, 1822.442 95.775, 1822.442 112 M 1978.445 113.500 C 1978.444 130.550, 1978.581 137.666, 1978.748 129.312 C 1978.915 120.959, 1978.915 107.009, 1978.748 98.312 C 1978.582 89.616, 1978.445 96.450, 1978.445 113.500 M 1995.441 111.500 C 1995.442 127.450, 1995.580 133.835, 1995.748 125.689 C 1995.916 117.543, 1995.916 104.493, 1995.747 96.689 C 1995.579 88.885, 1995.441 95.550, 1995.441 111.500 M 2306.458 125 C 2306.458 148.375, 2306.589 157.938, 2306.749 146.250 C 2306.909 134.563, 2306.909 115.438, 2306.749 103.750 C 2306.589 92.063, 2306.458 101.625, 2306.458 125 M 1514.183 93.311 L 1510.974 96.622 1511.250 132.061 L 1511.526 167.500 1511.763 132.048 L 1512 96.595 1515.196 93.298 C 1516.954 91.484, 1518.167 90, 1517.892 90 C 1517.617 90, 1515.948 91.490, 1514.183 93.311 M 2758.999 115.799 L 2759.497 141.500 2759.767 116.568 C 2759.915 102.855, 2759.690 91.290, 2759.268 90.866 C 2758.846 90.443, 2758.724 101.663, 2758.999 115.799 M 1164.161 94.328 C 1161.985 96.645, 1161.975 96.838, 1162.250 132.078 L 1162.526 167.500 1162.763 132.064 C 1162.996 97.219, 1163.036 96.590, 1165.174 94.314 C 1166.370 93.042, 1167.124 92, 1166.849 92 C 1166.574 92, 1165.364 93.048, 1164.161 94.328 M 3120.434 116.500 C 3120.433 130.250, 3120.574 136.014, 3120.747 129.308 C 3120.919 122.603, 3120.920 111.353, 3120.748 104.308 C 3120.576 97.264, 3120.434 102.750, 3120.434 116.500 M 1572.452 131 C 1572.452 151.075, 1572.585 159.288, 1572.749 149.250 C 1572.912 139.213, 1572.912 122.788, 1572.749 112.750 C 1572.585 102.713, 1572.452 110.925, 1572.452 131 M 3028.448 132 C 3028.448 150.425, 3028.583 157.963, 3028.748 148.750 C 3028.913 139.537, 3028.913 124.463, 3028.748 115.250 C 3028.583 106.037, 3028.448 113.575, 3028.448 132 M 1206.448 133.500 C 1206.447 151.650, 1206.582 159.216, 1206.748 150.314 C 1206.913 141.411, 1206.914 126.561, 1206.749 117.314 C 1206.583 108.066, 1206.448 115.350, 1206.448 133.500 M 1324.445 136 C 1324.445 153.325, 1324.582 160.412, 1324.748 151.750 C 1324.915 143.087, 1324.915 128.912, 1324.748 120.250 C 1324.582 111.587, 1324.445 118.675, 1324.445 136 M 11.684 198.649 C 11.308 199.025, 11 204.266, 11 210.296 L 11 221.258 17.229 220.554 C 31.113 218.983, 94.150 220.089, 129.500 222.524 C 177.295 225.815, 185.476 226.060, 188.350 224.284 C 188.933 223.924, 189.077 224.356, 188.701 225.336 C 188.173 226.713, 188.737 227, 191.972 227 C 194.123 227, 196.179 226.520, 196.541 225.933 C 196.904 225.346, 196.593 224.967, 195.850 225.091 C 194.555 225.306, 193.238 224.932, 188.203 222.919 C 185.222 221.726, 184.094 221.768, 186 223 C 186.825 223.533, 186.998 223.976, 186.385 223.985 C 185.772 223.993, 184.064 223.051, 182.590 221.892 C 180.915 220.574, 179.001 219.958, 177.485 220.248 C 176.152 220.503, 175.298 220.326, 175.589 219.856 C 175.880 219.385, 175.678 219, 175.141 219 C 174.603 219, 173.339 218.733, 172.332 218.406 C 170.778 217.902, 170.728 217.987, 172 218.971 C 173.212 219.909, 173.021 220, 171 219.447 C 169.625 219.071, 167.825 218.205, 167 217.523 C 164.945 215.823, 161.124 214.991, 160.442 216.094 C 160.134 216.592, 159.346 216.993, 158.691 216.985 C 157.879 216.974, 157.925 216.700, 158.835 216.123 C 159.831 215.492, 159.578 215.119, 157.835 214.652 C 154.446 213.745, 153.280 213.888, 155 215 C 156.049 215.678, 156.115 215.974, 155.219 215.985 C 154.514 215.993, 153.691 215.359, 153.390 214.575 C 152.912 213.329, 150.139 212.524, 142.500 211.414 C 141.400 211.254, 135.550 210.248, 129.500 209.179 C 105.400 204.920, 86.931 202.733, 57 200.597 C 27.893 198.520, 12.476 197.857, 11.684 198.649 M 490 198.698 C 463.048 199.331, 400.389 203.216, 371.500 206.045 C 313.500 211.726, 251.557 220.813, 214.500 229.078 C 206.800 230.796, 198.813 232.428, 196.750 232.705 C 194.688 232.983, 193 233.568, 193 234.005 C 193 234.442, 191.537 234.805, 189.750 234.812 C 181.089 234.843, 117.909 252.744, 87.500 263.783 C 74.516 268.496, 69.464 270.948, 72.500 271.064 L 74.500 271.141 72.500 272 C 70.834 272.716, 71.085 272.893, 74 273.061 L 77.500 273.263 74 274 C 71.910 274.440, 71.306 274.822, 72.500 274.950 C 78.937 275.635, 80.644 275.570, 81.942 274.589 C 83.087 273.725, 83.206 273.809, 82.520 275 C 81.833 276.192, 82.050 276.165, 83.578 274.868 C 84.635 273.971, 86.625 272.929, 88 272.553 C 89.910 272.030, 90.146 272.117, 89 272.919 C 87.219 274.166, 88.676 274.213, 91.500 273 C 92.888 272.404, 93.041 272.100, 92 272.007 C 91.125 271.929, 91.491 271.476, 92.879 270.921 C 94.495 270.274, 95.697 270.334, 96.629 271.107 C 97.927 272.185, 98.451 271.627, 98.062 269.581 C 97.966 269.075, 98.596 269.250, 99.462 269.969 C 100.775 271.058, 101.344 270.998, 102.874 269.614 C 103.884 268.700, 105.434 268.229, 106.318 268.569 C 107.966 269.201, 117.744 266.452, 119.450 264.877 C 119.973 264.395, 120.873 264.007, 121.450 264.015 C 122.028 264.024, 121.825 264.487, 121 265.046 C 119.909 265.784, 120.318 265.871, 122.500 265.365 C 124.150 264.982, 125.950 264.114, 126.500 263.435 C 127.934 261.666, 131.717 260.734, 132.477 261.962 C 132.903 262.653, 133.733 262.678, 134.929 262.038 C 135.924 261.506, 137.018 261.352, 137.362 261.696 C 137.706 262.040, 138.893 261.502, 140 260.500 C 141.107 259.498, 142.310 258.976, 142.673 259.339 C 143.036 259.703, 142.733 260, 142 260 C 141.267 260, 140.964 260.297, 141.327 260.661 C 141.690 261.024, 142.778 260.627, 143.744 259.779 C 144.710 258.931, 146.625 257.929, 148 257.553 C 149.910 257.030, 150.146 257.117, 149 257.919 C 148.175 258.497, 147.915 258.976, 148.421 258.985 C 148.928 258.993, 150.157 258.263, 151.153 257.362 C 152.498 256.145, 153.302 256.006, 154.284 256.821 C 155.256 257.627, 156.350 257.531, 158.417 256.459 C 161.576 254.820, 163.300 254.514, 161 256 C 160.175 256.533, 160.007 256.976, 160.628 256.985 C 161.248 256.993, 162.315 256.325, 163 255.500 C 163.685 254.675, 164.752 254.007, 165.372 254.015 C 165.993 254.024, 165.825 254.467, 165 255 C 164.175 255.533, 164.007 255.976, 164.628 255.985 C 165.248 255.993, 166.299 255.344, 166.965 254.542 C 167.770 253.573, 169.163 253.283, 171.129 253.676 C 173.281 254.106, 174.434 253.789, 175.371 252.507 C 176.451 251.031, 177.022 250.941, 178.912 251.953 C 180.758 252.941, 181.483 252.873, 182.912 251.580 C 183.872 250.711, 185.072 250.007, 185.579 250.015 C 186.085 250.024, 185.825 250.467, 185 251 C 184.175 251.533, 184.007 251.976, 184.628 251.985 C 185.248 251.993, 186.315 251.325, 187 250.500 C 187.685 249.675, 188.752 249.007, 189.372 249.015 C 189.993 249.024, 189.825 249.487, 189 250.046 C 187.852 250.823, 188.086 250.938, 190 250.535 C 195.322 249.416, 204.583 247.915, 206.272 247.897 C 207.246 247.887, 207.808 247.498, 207.520 247.033 C 207.233 246.567, 207.854 246.411, 208.901 246.684 C 212.003 247.496, 222.140 245.040, 221.322 243.676 C 220.833 242.862, 221.089 242.882, 222.150 243.741 C 222.994 244.424, 223.916 244.750, 224.200 244.466 C 224.485 244.182, 226.338 243.889, 228.318 243.814 C 230.299 243.740, 231.689 243.306, 231.408 242.851 C 231.126 242.396, 231.549 242.273, 232.347 242.580 C 233.145 242.886, 234.095 242.656, 234.458 242.068 C 234.821 241.481, 235.654 241.007, 236.309 241.015 C 237.025 241.025, 236.901 241.418, 236 242 C 235.175 242.533, 234.962 242.976, 235.527 242.985 C 236.093 242.993, 237.574 242.286, 238.820 241.413 C 240.639 240.139, 241.379 240.070, 242.574 241.062 C 243.784 242.066, 244.317 241.948, 245.423 240.436 C 246.530 238.922, 247.061 238.806, 248.275 239.813 C 249.480 240.813, 249.879 240.758, 250.352 239.526 C 250.674 238.686, 251.514 238.007, 252.219 238.015 C 253.128 238.026, 253.064 238.341, 252 239.098 C 250.893 239.885, 251.800 240.010, 255.460 239.573 C 258.187 239.247, 260.865 238.535, 261.410 237.990 C 261.954 237.446, 262.872 237.007, 263.450 237.015 C 264.027 237.024, 263.825 237.503, 263 238.081 C 261.855 238.883, 262.091 238.968, 264 238.443 C 265.375 238.065, 267.082 237.289, 267.792 236.720 C 268.692 235.999, 269.432 236.032, 270.229 236.829 C 271.087 237.687, 271.820 237.568, 273.168 236.348 C 274.550 235.097, 275.282 234.989, 276.352 235.877 C 277.301 236.665, 278.497 236.729, 280.121 236.079 C 281.429 235.555, 281.863 235.098, 281.083 235.063 C 280.304 235.029, 279.923 234.744, 280.236 234.431 C 280.549 234.118, 281.774 234.455, 282.958 235.181 C 284.818 236.320, 285.246 236.262, 286.105 234.750 C 286.652 233.787, 287.640 233.007, 288.300 233.015 C 289.051 233.025, 288.940 233.429, 288 234.096 C 286.898 234.878, 288.042 235.024, 292.319 234.645 C 295.520 234.362, 298.782 233.596, 299.569 232.943 C 300.611 232.078, 301.359 232.053, 302.318 232.849 C 303.291 233.656, 304.219 233.535, 305.861 232.385 C 307.637 231.141, 308.384 231.074, 309.562 232.051 C 310.748 233.036, 311.422 232.928, 313 231.500 C 314.418 230.217, 315.315 230.016, 316.231 230.776 C 317.707 231.999, 334.383 230.532, 337.291 228.923 C 338.276 228.378, 339.626 228.274, 340.291 228.691 C 341.776 229.623, 345.068 229.159, 346.750 227.780 C 347.615 227.071, 348.451 227.129, 349.463 227.969 C 350.623 228.932, 351.593 228.850, 354.148 227.576 C 356.328 226.489, 357.697 226.297, 358.385 226.985 C 359.905 228.505, 363.110 228.210, 365.153 226.362 C 366.589 225.062, 367.262 224.973, 368.417 225.931 C 369.843 227.114, 376.734 226.885, 388 225.280 C 390.475 224.927, 394.059 224.695, 395.965 224.763 C 397.871 224.832, 400.008 224.408, 400.715 223.821 C 401.634 223.059, 402.424 223.107, 403.489 223.991 C 404.500 224.830, 406.187 224.976, 408.739 224.446 C 410.808 224.017, 413.096 223.768, 413.824 223.894 C 414.552 224.019, 415.809 223.573, 416.617 222.903 C 417.729 221.980, 418.366 221.966, 419.242 222.842 C 420.814 224.414, 430.374 224.414, 429.403 222.842 C 428.904 222.036, 429.401 221.872, 431.042 222.301 C 432.336 222.639, 434.001 222.414, 434.740 221.801 C 435.732 220.977, 436.388 220.988, 437.242 221.842 C 437.929 222.529, 441.472 222.971, 445.950 222.930 C 450.102 222.891, 452.728 222.554, 451.784 222.180 C 450.840 221.806, 472.890 221.525, 500.784 221.557 L 551.500 221.613 513.500 221.039 L 475.500 220.464 514 220 L 552.500 219.536 514 219 L 475.500 218.464 514 218 L 552.500 217.536 514 217 L 475.500 216.464 514 216 L 552.500 215.536 514 215 L 475.500 214.464 513.750 214.232 L 552 214 552 206 L 552 198 526.750 198.214 C 512.862 198.331, 496.325 198.549, 490 198.698 M 14.710 236.153 C 16.074 236.691, 15.786 236.904, 13.500 237.048 L 10.500 237.237 13.500 238 L 16.500 238.763 13.500 239 L 10.500 239.237 13.500 240 L 16.500 240.763 13.500 241 L 10.500 241.237 13.500 242 L 16.500 242.763 13.750 242.882 C 11.296 242.987, 11 243.377, 11 246.500 C 11 249.140, 11.430 250.017, 12.750 250.070 C 14.246 250.130, 14.210 250.265, 12.500 251 C 10.757 251.749, 10.886 251.884, 13.500 252.048 L 16.500 252.237 13.500 253 C 10.694 253.714, 10.791 253.781, 15 254.032 L 19.500 254.300 15 255.048 C 10.914 255.727, 11.098 255.779, 17 255.607 C 26.701 255.326, 50.280 250.887, 51.642 249.086 C 52.557 247.875, 53.077 247.819, 54.265 248.805 C 55.080 249.481, 56.366 249.823, 57.123 249.566 C 59.176 248.866, 66.246 247.762, 68.272 247.825 C 69.357 247.858, 69.784 247.418, 69.375 246.689 C 68.901 245.847, 69.095 245.860, 70.040 246.736 C 71.104 247.724, 71.734 247.646, 73.168 246.348 C 74.648 245.009, 75.234 244.950, 76.512 246.010 C 77.802 247.081, 78.291 246.984, 79.423 245.436 C 80.612 243.810, 80.998 243.754, 82.489 244.991 C 83.974 246.224, 84.316 246.187, 85.146 244.703 C 85.671 243.766, 86.640 243.007, 87.300 243.015 C 88.052 243.025, 87.940 243.429, 87 244.098 C 85.897 244.882, 86.824 244.997, 90.500 244.530 C 93.250 244.181, 98.200 243.646, 101.500 243.342 C 104.800 243.038, 108.279 242.099, 109.231 241.256 C 110.648 240.002, 111.241 239.956, 112.500 241 C 113.767 242.051, 114.383 241.963, 116 240.500 C 117.531 239.115, 118.272 238.981, 119.370 239.892 C 120.360 240.714, 121.995 240.786, 124.889 240.136 C 127.150 239.628, 129 239.480, 129 239.806 C 129 240.133, 129.505 239.895, 130.122 239.278 C 130.739 238.661, 131.870 238.396, 132.635 238.690 C 133.400 238.984, 134.781 238.611, 135.705 237.862 C 136.708 237.048, 137.096 236.980, 136.669 237.692 C 136.006 238.797, 137.068 238.868, 142.500 238.084 C 143.050 238.004, 142.721 237.485, 141.768 236.930 C 140.816 236.375, 137.441 235.981, 134.268 236.053 C 131.096 236.126, 102.495 236.019, 70.710 235.816 C 38.926 235.612, 13.726 235.764, 14.710 236.153 M 60.311 237.748 C 68.457 237.916, 81.507 237.916, 89.311 237.747 C 97.115 237.579, 90.450 237.441, 74.500 237.441 C 58.550 237.442, 52.165 237.580, 60.311 237.748 M 65.306 239.747 C 71.800 239.922, 82.150 239.921, 88.306 239.746 C 94.463 239.571, 89.150 239.428, 76.500 239.429 C 63.850 239.429, 58.813 239.573, 65.306 239.747 M 508.811 239.748 C 516.681 239.917, 529.281 239.917, 536.811 239.747 C 544.340 239.578, 537.900 239.439, 522.500 239.440 C 507.100 239.440, 500.940 239.579, 508.811 239.748 M 454 240.928 C 455.096 241.724, 452.156 241.838, 443.093 241.350 C 434.645 240.895, 430.889 241.012, 431.324 241.716 C 431.747 242.400, 428.671 242.756, 422.232 242.769 C 416.879 242.780, 409.350 243.015, 405.500 243.290 C 401.650 243.565, 393.100 244.025, 386.500 244.313 C 379.900 244.600, 370 245.308, 364.500 245.885 C 353.691 247.019, 349.600 247.411, 332 249.003 C 325.675 249.575, 316.900 250.494, 312.500 251.045 C 308.100 251.596, 302.025 252.303, 299 252.616 C 295.975 252.929, 283.808 254.467, 271.963 256.034 C 226.243 262.084, 199.464 267, 212.229 267 C 214.224 267, 216.466 267.609, 217.211 268.354 C 218.778 269.921, 228 271.547, 228 270.256 C 228 269.780, 243.398 269.268, 262.218 269.119 C 281.038 268.970, 296.901 268.545, 297.468 268.174 C 298.036 267.803, 305.700 267.170, 314.500 266.766 C 323.300 266.362, 338.150 265.568, 347.500 265.003 C 395.613 262.092, 400.320 261.919, 484 259.971 C 507.925 259.414, 530.650 258.493, 534.500 257.925 C 538.350 257.357, 542.962 256.741, 544.750 256.555 L 548 256.218 548 265.276 C 548 270.257, 548.177 274.146, 548.393 273.917 C 548.609 273.687, 548.982 267.988, 549.222 261.250 L 549.658 249 522.579 248.774 L 495.500 248.548 523 248 L 550.500 247.452 519 246.997 L 487.500 246.542 520 246 L 552.500 245.458 517 244.998 L 481.500 244.539 517 244 L 552.500 243.461 515 242.999 L 477.500 242.537 515 242 L 552.500 241.463 520 241.229 C 502.125 241.100, 479.625 240.734, 470 240.416 C 457.241 239.994, 452.906 240.133, 454 240.928 M 701.438 291.500 C 701.437 306.350, 701.576 312.564, 701.747 305.310 C 701.918 298.055, 701.918 285.905, 701.748 278.310 C 701.578 270.714, 701.438 276.650, 701.438 291.500 M 748.435 290 C 748.435 304.025, 748.575 309.762, 748.747 302.750 C 748.919 295.738, 748.919 284.262, 748.747 277.250 C 748.575 270.238, 748.435 275.975, 748.435 290 M 1180.456 304.500 C 1180.456 326.500, 1180.588 335.358, 1180.749 324.183 C 1180.910 313.009, 1180.910 295.009, 1180.749 284.183 C 1180.587 273.358, 1180.455 282.500, 1180.456 304.500 M 1378.456 304.500 C 1378.456 326.500, 1378.588 335.358, 1378.749 324.183 C 1378.910 313.009, 1378.910 295.009, 1378.749 284.183 C 1378.587 273.358, 1378.455 282.500, 1378.456 304.500 M 1399.456 304.500 C 1399.456 326.500, 1399.588 335.358, 1399.749 324.183 C 1399.910 313.009, 1399.910 295.009, 1399.749 284.183 C 1399.587 273.358, 1399.455 282.500, 1399.456 304.500 M 1708.456 304.500 C 1708.456 326.500, 1708.588 335.358, 1708.749 324.183 C 1708.910 313.009, 1708.910 295.009, 1708.749 284.183 C 1708.587 273.358, 1708.455 282.500, 1708.456 304.500 M 1930.456 304.500 C 1930.456 326.500, 1930.588 335.358, 1930.749 324.183 C 1930.910 313.009, 1930.910 295.009, 1930.749 284.183 C 1930.587 273.358, 1930.455 282.500, 1930.456 304.500 M 2000.456 304.500 C 2000.456 326.500, 2000.588 335.358, 2000.749 324.183 C 2000.910 313.009, 2000.910 295.009, 2000.749 284.183 C 2000.587 273.358, 2000.455 282.500, 2000.456 304.500 M 2098.438 291.500 C 2098.437 306.350, 2098.576 312.564, 2098.747 305.310 C 2098.918 298.055, 2098.918 285.905, 2098.748 278.310 C 2098.578 270.714, 2098.438 276.650, 2098.438 291.500 M 2176.456 305 C 2176.456 327.275, 2176.588 336.387, 2176.749 325.250 C 2176.910 314.113, 2176.910 295.888, 2176.749 284.750 C 2176.588 273.613, 2176.456 282.725, 2176.456 305 M 2294.437 291 C 2294.437 305.575, 2294.577 311.538, 2294.747 304.250 C 2294.918 296.962, 2294.918 285.038, 2294.747 277.750 C 2294.577 270.462, 2294.437 276.425, 2294.437 291 M 2341.436 290.500 C 2341.436 304.800, 2341.577 310.511, 2341.748 303.191 C 2341.919 295.871, 2341.918 284.171, 2341.747 277.191 C 2341.575 270.211, 2341.435 276.200, 2341.436 290.500 M 2431.456 304.500 C 2431.456 326.500, 2431.588 335.358, 2431.749 324.183 C 2431.910 313.009, 2431.910 295.009, 2431.749 284.183 C 2431.587 273.358, 2431.455 282.500, 2431.456 304.500 M 2361.455 305 C 2361.455 326.725, 2361.587 335.613, 2361.749 324.750 C 2361.910 313.887, 2361.910 296.112, 2361.749 285.250 C 2361.587 274.387, 2361.455 283.275, 2361.455 305 M 1567.451 309 C 1567.451 328.525, 1567.585 336.513, 1567.748 326.750 C 1567.912 316.988, 1567.912 301.013, 1567.748 291.250 C 1567.585 281.488, 1567.451 289.475, 1567.451 309 M 2236.450 309.500 C 2236.451 328.750, 2236.585 336.483, 2236.749 326.685 C 2236.913 316.888, 2236.912 301.138, 2236.748 291.685 C 2236.584 282.233, 2236.450 290.250, 2236.450 309.500 M 1556.450 310 C 1556.450 328.975, 1556.584 336.738, 1556.748 327.250 C 1556.913 317.762, 1556.913 302.238, 1556.748 292.750 C 1556.584 283.262, 1556.450 291.025, 1556.450 310 M 2247.450 310 C 2247.450 328.975, 2247.584 336.738, 2247.748 327.250 C 2247.913 317.762, 2247.913 302.238, 2247.748 292.750 C 2247.584 283.262, 2247.450 291.025, 2247.450 310 M 1368.437 318 C 1368.437 332.575, 1368.577 338.538, 1368.747 331.250 C 1368.918 323.962, 1368.918 312.038, 1368.747 304.750 C 1368.577 297.462, 1368.437 303.425, 1368.437 318 M 1322.431 320.500 C 1322.432 333.700, 1322.574 338.962, 1322.747 332.193 C 1322.921 325.424, 1322.920 314.624, 1322.746 308.193 C 1322.572 301.762, 1322.431 307.300, 1322.431 320.500" stroke="none" fill="#eaeaea" fill-rule="evenodd"/><path d="M 2310.383 21.949 C 2295.453 25.513, 2289 36.830, 2289 59.447 L 2289 69 2286.250 69.118 C 2284.738 69.184, 2283.098 69.162, 2282.606 69.071 C 2282.115 68.979, 2280.427 69.187, 2278.856 69.532 C 2276.076 70.142, 2276 70.330, 2276 76.579 L 2276 83 2282.500 83 L 2289 83 2289 125 L 2289 167 2297.500 167 L 2306 167 2306 125 L 2306 83 2316 83 L 2326 83 2326 76 L 2326 69 2315.892 69 L 2305.784 69 2306.269 57.750 C 2306.796 45.525, 2307.283 42.569, 2309.139 40.332 C 2312.523 36.255, 2321.407 34.599, 2327.389 36.930 C 2328.977 37.549, 2330.351 37.931, 2330.440 37.778 C 2330.530 37.625, 2331.400 34.884, 2332.372 31.688 C 2334.542 24.560, 2333.981 23.674, 2326.324 22.136 C 2320.067 20.880, 2315.106 20.821, 2310.383 21.949 M 1352.667 23.667 C 1351.557 24.776, 1351.893 152.075, 1353.016 156.118 C 1354.434 161.223, 1358.064 166.254, 1361.537 167.927 C 1365.509 169.841, 1377.372 169.874, 1378.878 167.977 C 1379.086 167.714, 1378.890 165.025, 1378.442 162 C 1377.994 158.975, 1377.711 156.162, 1377.814 155.750 C 1377.916 155.338, 1376.682 155, 1375.071 155 C 1368.699 155, 1369 158.345, 1369 87.429 L 1369 23 1361.167 23 C 1356.858 23, 1353.033 23.300, 1352.667 23.667 M 2760.190 49.959 C 2760.361 64.833, 2760.357 77.001, 2760.183 77.001 C 2760.009 77, 2758.415 75.893, 2756.641 74.540 C 2736.076 58.854, 2709.095 66.526, 2696.997 91.500 C 2691.489 102.870, 2690.019 115.034, 2692.269 130.619 C 2694.276 144.525, 2697.935 152.794, 2705.005 159.408 C 2709.840 163.931, 2716.906 167.733, 2722 168.554 C 2723.375 168.776, 2726.327 169.240, 2728.561 169.585 C 2736.481 170.809, 2748.944 166.222, 2757 159.118 C 2758.925 157.421, 2760.838 156.025, 2761.250 156.016 C 2761.662 156.007, 2762 158.475, 2762 161.500 L 2762 167 2769.507 167 L 2777.013 167 2776.757 95.250 L 2776.500 23.500 2768.190 23.209 L 2759.880 22.917 2760.190 49.959 M 3121.218 49.960 C 3121.373 64.833, 3121.356 77.001, 3121.180 77.001 C 3121.004 77, 3118.979 75.713, 3116.680 74.141 C 3103.571 65.174, 3090.851 64.012, 3077.470 70.558 C 3066.343 76.002, 3059.183 85.103, 3054.305 100 C 3052.240 106.308, 3051.863 109.339, 3051.933 119.072 C 3052.167 151.460, 3067.423 169.876, 3093.614 169.386 C 3100.772 169.252, 3108.596 166.055, 3116.649 159.976 L 3121.861 156.040 3122.546 161.520 L 3123.230 167 3130.622 167 L 3138.013 167 3137.757 95.250 L 3137.500 23.500 3129.218 23.209 L 3120.937 22.918 3121.218 49.960 M 3733.441 24.294 C 3733.167 25.006, 3733.069 55.044, 3733.222 91.044 C 3733.497 155.786, 3733.523 156.544, 3735.644 160.500 C 3737.933 164.771, 3740.981 167.982, 3743.162 168.419 C 3743.898 168.567, 3745.743 169.033, 3747.263 169.455 C 3750.213 170.275, 3757.631 169.483, 3759.828 168.113 C 3760.914 167.436, 3760.936 166.163, 3759.948 161.143 C 3758.829 155.455, 3758.542 155, 3756.070 155 C 3754.601 155, 3752.860 154.460, 3752.200 153.800 C 3751.292 152.892, 3751 137.002, 3751 88.407 C 3751 30.794, 3750.838 24.152, 3749.418 23.607 C 3746.295 22.409, 3733.961 22.939, 3733.441 24.294 M 993.500 29.161 C 988.205 32.072, 986.208 39.996, 989.561 44.783 C 994.369 51.647, 1006.707 51.329, 1009.929 44.257 C 1011.765 40.226, 1011.210 35.038, 1008.611 31.950 C 1007.297 30.388, 1005.947 29.386, 1005.611 29.722 C 1005.275 30.058, 1005 29.808, 1005 29.167 C 1005 27.666, 996.227 27.661, 993.500 29.161 M 1755.712 30.391 C 1750.723 35.015, 1751.245 43.688, 1756.774 48.037 C 1760.312 50.819, 1767.317 50.446, 1771.087 47.273 C 1776.093 43.061, 1776.201 34.945, 1771.314 30.415 C 1767.612 26.984, 1759.401 26.972, 1755.712 30.391 M 3493.500 28.945 C 3488.642 30.934, 3486.436 36.375, 3488.078 42.320 C 3490.663 51.683, 3505.394 52.532, 3509.670 43.566 C 3513.219 36.124, 3507.940 27.938, 3499.673 28.063 C 3497.378 28.098, 3494.600 28.495, 3493.500 28.945 M 698 101 L 698 167 706.587 167 L 715.174 167 714.643 116.750 C 714.351 89.112, 713.839 64.475, 713.504 62 C 712.941 57.832, 713.317 58.310, 718.606 68.500 C 721.746 74.550, 732.843 94.350, 743.267 112.500 C 753.690 130.650, 764.982 150.332, 768.359 156.239 L 774.500 166.977 783.750 166.989 L 793 167 793 101 L 793 35 784.386 35 L 775.773 35 776.309 86.750 C 776.604 115.213, 777.140 139.850, 777.499 141.500 C 777.859 143.150, 775.834 140.225, 772.998 135 C 758.101 107.552, 747.186 88.142, 740.944 78 C 740.436 77.175, 739.055 74.700, 737.875 72.500 C 736.694 70.300, 733.202 64.201, 730.114 58.946 C 723.208 47.193, 721.755 44.641, 718.898 39.250 L 716.645 35 707.323 35 L 698 35 698 101 M 1445 101 L 1445 167 1453.500 167 L 1462 167 1462 101 L 1462 35 1453.500 35 L 1445 35 1445 101 M 2387 101 L 2387 167 2395.500 167 L 2404 167 2404 138 L 2404 109 2429 109 L 2454 109 2454 101 L 2454 93 2429 93 L 2404 93 2404 71.500 L 2404 50 2433.500 50 L 2463 50 2463 42.500 L 2463 35 2425 35 L 2387 35 2387 101 M 3237.509 38.633 C 3236.674 40.631, 3235.803 43.219, 3235.574 44.383 C 3235.345 45.547, 3233.288 51.675, 3231.003 58 C 3228.719 64.325, 3226.705 70.175, 3226.528 71 C 3226.351 71.825, 3224.332 77.900, 3222.040 84.500 C 3219.749 91.100, 3217.707 97.269, 3217.503 98.208 C 3217.298 99.147, 3215.323 104.997, 3213.113 111.208 C 3210.903 117.419, 3205.986 131.725, 3202.188 143 C 3198.389 154.275, 3194.938 164.305, 3194.519 165.289 C 3193.813 166.945, 3194.446 167.057, 3203.038 166.789 L 3212.319 166.500 3218.410 146.762 L 3224.500 127.023 3248.044 127.012 L 3271.588 127 3274.350 135.482 C 3275.869 140.147, 3277.137 144.309, 3277.168 144.732 C 3277.198 145.154, 3278.235 148.425, 3279.472 152 C 3280.708 155.575, 3282.251 160.412, 3282.900 162.750 L 3284.080 167 3293.647 167 C 3302.357 167, 3303.152 166.843, 3302.517 165.250 C 3301.498 162.694, 3266.542 59.487, 3262.212 46.250 L 3258.532 35 3248.779 35 L 3239.027 35 3237.509 38.633 M 3787.496 43.500 C 3787.269 44.600, 3786.685 50.567, 3786.198 56.760 C 3785.711 62.953, 3785.092 68.241, 3784.822 68.511 C 3784.553 68.781, 3782.345 69.036, 3779.916 69.078 C 3777.487 69.119, 3774.262 69.380, 3772.750 69.656 C 3770.088 70.143, 3770 70.364, 3770 76.579 L 3770 83 3776.926 83 L 3783.853 83 3784.207 115.250 C 3784.545 145.963, 3784.669 147.770, 3786.824 153.172 C 3788.967 158.547, 3794.007 164.328, 3798.774 166.879 C 3804.457 169.921, 3816.471 170.257, 3825.345 167.624 C 3831.827 165.700, 3831.511 166.681, 3828.879 156.650 C 3828.002 153.305, 3827.583 152.892, 3825.685 153.497 C 3820.506 155.147, 3812.263 155.187, 3809.151 153.578 C 3802.779 150.283, 3802.533 148.889, 3802.197 114.250 L 3801.895 83 3814.947 83 L 3828 83 3828 76 L 3828 69 3815 69 L 3802 69 3802 55.582 L 3802 42.164 3794.954 41.832 C 3788.572 41.531, 3787.869 41.689, 3787.496 43.500 M 928.549 50.750 C 928.203 55.563, 927.670 61.638, 927.366 64.250 L 926.812 69 922.531 69 C 920.177 69, 916.844 69.281, 915.125 69.625 C 912.017 70.247, 912 70.285, 912 76.625 L 912 83 919 83 L 926 83 926 111.816 C 926 141.444, 926.743 149.615, 930.019 156.036 C 932.461 160.824, 938.821 166.449, 943.619 168.067 C 950.223 170.292, 960.627 169.823, 969.755 166.888 C 973.293 165.751, 973.316 165.571, 971.042 157.146 C 969.952 153.106, 969.673 152.839, 967.183 153.438 C 956.204 156.079, 949.460 154.590, 946.316 148.829 C 944.692 145.851, 944.468 142.204, 944.197 114.250 L 943.895 83 956.947 83 L 970 83 970 76 L 970 69 957 69 L 944 69 944 55.500 L 944 42 936.590 42 L 929.180 42 928.549 50.750 M 1693.121 43.750 C 1693.257 44.712, 1693.016 50.787, 1692.585 57.250 L 1691.803 69 1687.026 69 C 1684.399 69, 1680.844 69.281, 1679.125 69.625 C 1676.017 70.247, 1676 70.285, 1676 76.625 L 1676 83 1683.500 83 L 1691 83 1691 114.341 C 1691 137.501, 1691.346 146.833, 1692.327 150.091 C 1693.057 152.516, 1693.730 154.950, 1693.824 155.500 C 1693.918 156.050, 1695.640 158.468, 1697.651 160.874 C 1704.211 168.723, 1714.537 171.424, 1727.170 168.595 C 1737.595 166.261, 1737.417 166.468, 1735.361 159.073 L 1733.624 152.825 1730.562 153.622 C 1724.444 155.214, 1716.336 154.642, 1713.322 152.406 C 1708.495 148.825, 1708.118 146.020, 1708.056 113.250 L 1708 83 1721 83 L 1734 83 1734 76 L 1734 69 1721 69 L 1708 69 1708 55.500 L 1708 42 1700.437 42 C 1693.807 42, 1692.905 42.216, 1693.121 43.750 M 1807.583 51.750 C 1807.203 57.112, 1806.634 63.188, 1806.319 65.250 L 1805.744 69 1800.622 69.014 C 1791.366 69.038, 1791 69.328, 1791 76.617 L 1791 83 1797.927 83 L 1804.855 83 1805.196 115.750 L 1805.536 148.500 1808.130 154 C 1813.316 164.999, 1820.438 169.407, 1833 169.393 C 1838.925 169.386, 1852.060 166.846, 1851.985 165.722 C 1851.977 165.600, 1851.120 162.800, 1850.081 159.500 C 1848.416 154.212, 1847.913 153.536, 1845.846 153.803 C 1844.556 153.970, 1840.493 154.195, 1836.818 154.303 C 1830.686 154.484, 1829.889 154.263, 1827.122 151.614 C 1822.632 147.317, 1822 142.296, 1822 110.951 L 1822 83 1835 83 L 1848 83 1848 76 L 1848 69 1835 69 L 1822 69 1822 55.500 L 1822 42 1815.137 42 L 1808.274 42 1807.583 51.750 M 1980.615 51.750 C 1980.240 57.112, 1979.666 63.188, 1979.339 65.250 C 1978.752 68.954, 1978.688 69, 1974.122 69.014 C 1965.417 69.039, 1965 69.387, 1965 76.617 L 1965 83 1971.951 83 L 1978.902 83 1979.201 117.250 C 1979.529 154.811, 1979.052 151.519, 1985.617 161.538 C 1987.714 164.739, 1996.247 168.762, 2002.670 169.579 C 2007.556 170.200, 2020.681 168.104, 2023.651 166.227 C 2024.502 165.689, 2024.373 163.855, 2023.154 159.181 C 2021.600 153.219, 2021.365 152.896, 2019.003 153.481 C 2007.771 156.264, 2000.931 154.361, 1997.500 147.500 C 1995.656 143.813, 1995.475 141.135, 1995.184 113.250 L 1994.868 83 2008.434 83 L 2022 83 2022 76 L 2022 69 2008.500 69 L 1995 69 1995 55.500 L 1995 42 1988.148 42 L 1981.295 42 1980.615 51.750 M 3247 52.078 C 3247 55.083, 3233.044 102.210, 3229.477 111.250 C 3228.833 112.880, 3230.099 113, 3247.893 113 C 3258.402 113, 3267 112.782, 3267 112.515 C 3267 111.832, 3262.564 97.025, 3259.506 87.500 C 3253.930 70.135, 3249.233 53.809, 3249.077 51.250 C 3248.945 49.108, 3247 49.884, 3247 52.078 M 852.765 67.040 C 849.611 67.526, 843.986 69.121, 840.265 70.585 C 833.221 73.355, 823 78.747, 823 79.693 C 823 81.337, 830.365 92.028, 830.900 91.162 C 832.443 88.664, 848.672 82.004, 854.606 81.433 C 869.117 80.036, 876.863 86.457, 878.184 100.978 L 878.500 104.456 869.500 105.735 C 842.673 109.547, 827.070 117.248, 821.353 129.500 C 817.947 136.798, 818.044 147.690, 821.579 154.782 C 827.245 166.154, 841.214 171.696, 856.500 168.637 C 860.305 167.875, 874.619 160.380, 878.168 157.290 C 879.692 155.964, 879.896 156.319, 880.533 161.419 L 881.230 167 888.615 167 L 896 167 895.997 137.250 C 895.996 120.887, 895.504 103.450, 894.905 98.500 C 893.635 88.008, 889.946 79.125, 884.864 74.320 C 878.308 68.122, 865.130 65.133, 852.765 67.040 M 1067.251 67.471 C 1051.634 70.977, 1040.759 80.970, 1034.332 97.720 C 1032.088 103.568, 1031.714 106.150, 1031.615 116.500 C 1031.552 123.100, 1031.815 129.780, 1032.201 131.344 C 1035.100 143.108, 1040.979 153.391, 1048.182 159.293 C 1056.740 166.306, 1070.800 170.922, 1079.500 169.576 C 1081.700 169.236, 1084.685 168.770, 1086.133 168.541 C 1087.581 168.312, 1090.506 167.350, 1092.633 166.403 C 1094.760 165.456, 1096.736 164.640, 1097.025 164.590 C 1097.314 164.541, 1099.880 162.790, 1102.726 160.701 C 1108.633 156.365, 1113.966 149.558, 1117.056 142.413 C 1119.623 136.473, 1119.795 135.754, 1121.201 125 C 1123.369 108.434, 1118.170 90.943, 1107.900 80.250 C 1105.127 77.362, 1102.440 75, 1101.929 75 C 1101.418 75, 1101 74.647, 1101 74.216 C 1101 73.784, 1099.650 72.634, 1098 71.659 C 1096.350 70.684, 1095 70.112, 1095 70.387 C 1095 70.662, 1093.088 70.052, 1090.750 69.031 C 1084.802 66.432, 1074.831 65.770, 1067.251 67.471 M 1185.972 67.359 C 1179.339 68.788, 1173.125 72.284, 1166.279 78.439 C 1161.551 82.690, 1159.139 84.203, 1160.436 82.103 C 1160.741 81.609, 1160.704 78.459, 1160.353 75.103 L 1159.715 69 1152.358 69 L 1145 69 1145 118 L 1145 167 1153.500 167 L 1162 167 1162 131.545 L 1162 96.091 1168.250 91.022 C 1176.492 84.338, 1182.026 81.727, 1187.707 81.841 C 1198.206 82.052, 1203.445 86.253, 1205.571 96.166 C 1206.552 100.738, 1206.940 111.469, 1206.965 134.750 L 1207 167 1215.575 167 L 1224.150 167 1223.710 129.750 C 1223.349 99.125, 1222.980 91.522, 1221.636 87 C 1218.314 75.820, 1210.971 68.922, 1200.418 67.068 C 1193.270 65.813, 1193.135 65.815, 1185.972 67.359 M 1281.402 66.941 C 1278.598 67.383, 1274.548 68.311, 1272.402 69.003 C 1268.232 70.349, 1253.033 77.633, 1251.699 78.926 C 1251.072 79.533, 1253.536 84.463, 1257.666 90.868 C 1257.797 91.071, 1262.274 89.068, 1267.615 86.417 C 1276.752 81.883, 1277.805 81.595, 1285.413 81.549 C 1291.822 81.510, 1294.223 81.925, 1296.986 83.548 C 1302.118 86.562, 1305.720 92.474, 1306.474 99.115 L 1307.110 104.731 1300.074 105.424 C 1289.382 106.478, 1273.382 110.677, 1265.362 114.534 C 1249.706 122.065, 1243.258 136.923, 1248.994 152.253 C 1253.809 165.124, 1267.881 171.710, 1284.270 168.764 C 1288.228 168.053, 1299.262 162.440, 1304.689 158.379 C 1306.442 157.066, 1308.086 156.331, 1308.341 156.746 C 1308.596 157.161, 1309.125 159.637, 1309.516 162.250 L 1310.227 167 1317.191 167 L 1324.155 167 1323.694 131.250 C 1323.441 111.588, 1322.960 93.999, 1322.626 92.164 C 1321.555 86.276, 1314.946 74.992, 1311.072 72.435 C 1303.491 67.432, 1291.905 65.287, 1281.402 66.941 M 1534.500 67.351 C 1528.028 69.021, 1524.600 70.865, 1516.672 76.942 C 1509.660 82.316, 1509 82.192, 1509 75.500 C 1509 69.497, 1508.419 69, 1501.393 69 L 1495 69 1495 118 L 1495 167 1503 167 L 1511 167 1511 131.585 L 1511 96.170 1515.750 91.984 C 1521.104 87.266, 1527.656 83.184, 1531.154 82.388 C 1535.166 81.474, 1541.965 81.958, 1545.425 83.404 C 1547.246 84.165, 1550.033 86.487, 1551.618 88.565 L 1554.500 92.342 1554.785 129.671 L 1555.070 167 1563.598 167 L 1572.126 167 1571.768 127.750 C 1571.365 83.606, 1571.276 83.003, 1563.905 74.629 C 1557.838 67.737, 1545.163 64.600, 1534.500 67.351 M 1620.369 67.493 C 1605.067 70.820, 1596.848 80.058, 1596.790 93.995 C 1596.729 108.636, 1603.121 114.790, 1628.488 124.512 C 1641.653 129.557, 1646.939 134.276, 1647.166 141.182 C 1647.353 146.892, 1645.345 150.278, 1640.235 152.867 C 1634.813 155.615, 1629.016 156.300, 1622.355 154.979 C 1619.135 154.341, 1615.938 153.784, 1615.250 153.743 C 1614.563 153.701, 1614 153.265, 1614 152.774 C 1614 152.284, 1613.581 152.141, 1613.069 152.457 C 1612.557 152.774, 1611.852 152.569, 1611.501 152.002 C 1611.151 151.435, 1609.142 150.093, 1607.036 149.019 C 1604.931 147.945, 1602.465 146.322, 1601.557 145.414 C 1600.648 144.505, 1599.786 143.928, 1599.640 144.131 C 1599.495 144.334, 1597.672 146.871, 1595.589 149.770 C 1593.505 152.668, 1592.015 155.593, 1592.277 156.270 C 1593.098 158.393, 1605.194 164.968, 1612.500 167.262 C 1622.420 170.376, 1635.202 170.294, 1643.845 167.059 C 1651.044 164.366, 1659.159 157.256, 1661.540 151.558 C 1663.747 146.277, 1663.481 132.850, 1661.079 128.210 C 1657.250 120.813, 1651.786 117.013, 1636.500 111.112 C 1621.431 105.296, 1619.426 104.214, 1615.348 99.700 C 1612.361 96.394, 1611.894 95.270, 1612.410 92.634 C 1613.874 85.155, 1620.081 80.771, 1629.308 80.701 C 1636.640 80.646, 1641.901 82.200, 1647.881 86.188 L 1652.263 89.110 1655.064 85.805 C 1659.702 80.333, 1660.608 78.170, 1658.935 76.559 C 1655.864 73.602, 1645.301 68.749, 1639.056 67.425 C 1631.144 65.747, 1628.347 65.757, 1620.369 67.493 M 2072 66.641 C 2062.049 68.505, 2051.394 74.314, 2045.923 80.858 C 2044.248 82.861, 2041.001 88.325, 2038.707 93 L 2034.537 101.500 2034.169 116.549 C 2033.802 131.581, 2033.805 131.609, 2037.095 140.049 C 2039.980 147.454, 2041.331 149.442, 2048.008 156.109 C 2053.961 162.052, 2056.927 164.203, 2061.564 165.938 C 2077.313 171.832, 2090.497 170.863, 2106.772 162.615 C 2109.648 161.158, 2112 159.680, 2112 159.330 C 2112 158.236, 2106.969 148, 2106.431 148 C 2106.150 148, 2104.026 148.992, 2101.710 150.205 C 2099.395 151.417, 2097.275 152.461, 2097 152.524 C 2096.725 152.587, 2094.475 153.220, 2092 153.930 C 2080.804 157.140, 2066.047 153.373, 2059.179 145.551 C 2054.274 139.965, 2050.039 130.132, 2050.011 124.264 L 2050 122.027 2082.750 121.764 L 2115.500 121.500 2115.825 115 C 2116.268 106.149, 2114.352 94.685, 2111.267 87.727 C 2107.807 79.925, 2098 70.671, 2090.984 68.588 C 2085.340 66.912, 2075.786 65.932, 2072 66.641 M 2212.500 66.649 C 2198.379 68.759, 2185.597 78.069, 2178.960 91.078 C 2172.899 102.960, 2171.213 121.925, 2175.088 134.645 C 2180.967 153.940, 2193.361 165.801, 2210.985 168.997 C 2218.774 170.410, 2226.629 169.489, 2234.944 166.189 C 2247.368 161.259, 2259.506 146.110, 2261.788 132.688 C 2262.727 127.167, 2262.700 108.691, 2261.745 103 C 2260.433 95.181, 2254.528 84.748, 2247.937 78.602 C 2244.651 75.539, 2240.575 72.314, 2238.879 71.437 C 2231.823 67.789, 2219.655 65.580, 2212.500 66.649 M 2510.402 67.431 C 2497.186 70.424, 2486.668 78.878, 2480.457 91.500 C 2476.003 100.549, 2475.483 103.647, 2475.584 120.510 C 2475.667 134.479, 2475.678 134.542, 2479.337 142.355 C 2485.636 155.807, 2498.397 166.484, 2510.936 168.796 C 2517.191 169.949, 2527.376 169.367, 2533.024 167.532 C 2547.968 162.679, 2558.085 151.575, 2562.656 135.007 C 2569.246 111.128, 2561.535 85.865, 2544 73.883 C 2534.708 67.533, 2521.312 64.961, 2510.402 67.431 M 2622 66.706 C 2608.105 69.118, 2596.785 76.955, 2589.711 89.063 C 2583.167 100.263, 2580.714 120.837, 2584.420 133.440 C 2587.092 142.529, 2592.400 152.242, 2597.458 157.300 C 2602.009 161.851, 2611.984 167.338, 2617.563 168.358 C 2619.178 168.654, 2622.150 169.197, 2624.166 169.565 C 2628.965 170.441, 2639.782 168.513, 2646.339 165.614 C 2654.344 162.074, 2663.186 153.283, 2667.363 144.713 C 2669.296 140.746, 2671.243 135.250, 2671.689 132.500 C 2672.644 126.614, 2672.756 111.405, 2671.892 105 C 2670.040 91.277, 2658.937 76.152, 2646.500 70.413 C 2639.343 67.109, 2628.836 65.520, 2622 66.706 M 2881 66.649 C 2871.152 68.135, 2851.424 75.887, 2849.477 79.037 C 2848.852 80.048, 2854.630 91, 2855.788 91 C 2856.140 91, 2859.819 89.246, 2863.964 87.103 C 2876.733 80.500, 2888.928 79.455, 2896.180 84.342 C 2900.265 87.096, 2903.993 94.318, 2904.278 100.030 L 2904.500 104.475 2899.591 105.177 C 2895.123 105.817, 2892.861 106.166, 2884.869 107.452 C 2883.422 107.684, 2879.597 108.643, 2876.369 109.581 C 2873.141 110.519, 2870.385 111.217, 2870.244 111.132 C 2869.666 110.782, 2857.261 117.400, 2854.232 119.675 C 2852.434 121.025, 2849.577 124.877, 2847.882 128.234 C 2845.289 133.371, 2844.800 135.483, 2844.800 141.549 C 2844.800 152.978, 2848.740 160.314, 2857.701 165.565 C 2862.809 168.558, 2866.388 169.370, 2874.500 169.374 C 2882.350 169.379, 2889.288 166.950, 2898.382 161.013 L 2905.786 156.180 2906.393 159.215 C 2906.727 160.884, 2907 163.319, 2907 164.625 C 2907 166.916, 2907.268 167, 2914.577 167 L 2922.155 167 2921.797 131.250 C 2921.455 97.023, 2921.343 95.227, 2919.153 89.083 C 2916.271 80.996, 2911.932 74.645, 2907.108 71.453 C 2901.384 67.665, 2889.169 65.417, 2881 66.649 M 2993.500 66.598 C 2986.141 68.316, 2983 69.372, 2983 70.130 C 2983 70.608, 2982.615 70.888, 2982.144 70.750 C 2981.674 70.612, 2977.876 73.039, 2973.704 76.143 C 2969.533 79.247, 2965.868 81.534, 2965.560 81.226 C 2965.252 80.919, 2965 79.448, 2965 77.958 C 2965 76.469, 2964.719 73.844, 2964.375 72.125 L 2963.750 69 2956.875 69 L 2950 69 2950 118 L 2950 167 2958.500 167 L 2967 167 2967 131.536 L 2967 96.073 2973.250 90.870 C 2981.066 84.364, 2986.270 82.030, 2993.322 81.868 C 2997.412 81.774, 2999.759 82.306, 3002.372 83.921 C 3006.395 86.407, 3009.960 91.614, 3010.443 95.710 C 3010.624 97.245, 3010.823 113.930, 3010.886 132.789 L 3011 167.078 3019.550 166.789 L 3028.101 166.500 3028.027 129.520 C 3027.950 91.125, 3027.687 88.244, 3023.498 80.017 C 3020.636 74.396, 3017.741 71.655, 3011.988 69.120 C 3007.471 67.130, 2997.215 65.731, 2993.500 66.598 M 3345.326 67.044 C 3343.031 67.498, 3339.773 68.583, 3338.087 69.455 C 3336.401 70.327, 3334.750 70.974, 3334.420 70.892 C 3334.089 70.810, 3331.827 72.147, 3329.393 73.862 C 3318.676 81.416, 3313.378 97.969, 3317.399 111.331 C 3318.788 115.946, 3325.090 125.783, 3327.617 127.282 C 3328.587 127.856, 3327.871 129.025, 3324.915 131.695 C 3319.496 136.591, 3318.676 138.406, 3318.450 146 C 3318.244 152.947, 3319.513 156.603, 3323.521 160.612 L 3325.838 162.928 3320.086 168.752 C 3314.098 174.815, 3313 177.409, 3313 185.500 C 3313 192.485, 3314.047 195.695, 3317.728 199.996 C 3321.146 203.988, 3328.423 208.433, 3333.138 209.409 C 3334.437 209.678, 3336.625 210.185, 3338 210.536 C 3339.375 210.886, 3345 211.400, 3350.500 211.677 C 3367.652 212.541, 3382.932 207.821, 3392.769 198.619 C 3399.820 192.024, 3402.507 186.151, 3402.433 177.500 C 3402.364 169.463, 3400.826 165.811, 3395.565 161.191 C 3389.676 156.020, 3383.894 154.828, 3361 154.062 C 3349.541 153.679, 3339.314 152.874, 3337.811 152.236 C 3332.160 149.840, 3331.101 141.157, 3335.815 135.881 C 3338.293 133.107, 3338.893 132.873, 3340.841 133.915 C 3349.356 138.472, 3366.014 136.119, 3375.891 128.964 C 3389.060 119.424, 3393.162 99.360, 3384.541 86.655 L 3382.110 83.074 3391.305 82.787 L 3400.500 82.500 3400.796 75.750 L 3401.091 69 3384.795 69 C 3374.209 69, 3366.047 68.481, 3361.500 67.517 C 3353.798 65.886, 3351.521 65.819, 3345.326 67.044 M 3457.139 67.147 C 3450.585 69.033, 3442.307 75.894, 3436.802 84 C 3435.121 86.476, 3435.104 86.437, 3435.039 80 C 3434.928 69.078, 3434.870 69, 3426.883 69 L 3420 69 3420 118 L 3420 167 3428.500 167 L 3437 167 3437 135.467 L 3437 103.934 3439.498 99.004 C 3442.787 92.513, 3447.429 87.332, 3452.081 84.959 C 3456.591 82.658, 3464.207 81.748, 3467.733 83.088 C 3469.132 83.621, 3470.491 83.843, 3470.751 83.582 C 3471.253 83.081, 3473.905 71.320, 3473.965 69.333 C 3473.984 68.691, 3471.728 67.678, 3468.951 67.083 C 3463.093 65.827, 3461.703 65.834, 3457.139 67.147 M 3569.244 67.110 C 3562.818 68.180, 3552.323 73.176, 3547.092 77.653 C 3541.557 82.391, 3536.357 90.703, 3533.290 99.715 C 3531.044 106.317, 3530.646 109.172, 3530.674 118.500 C 3530.726 135.878, 3534.915 146.697, 3545.872 157.755 C 3550.075 161.998, 3557.892 166.623, 3562.220 167.427 C 3563.474 167.661, 3564.725 167.953, 3565 168.078 C 3565.588 168.345, 3566.017 168.426, 3572.229 169.445 C 3581.428 170.954, 3597.680 165.864, 3606.270 158.783 L 3609.041 156.500 3604.899 150.690 C 3600.769 144.897, 3600.750 144.886, 3598.628 146.771 C 3589.295 155.065, 3575.318 157.041, 3565.167 151.502 C 3553.010 144.868, 3547.551 131.755, 3549.107 112.923 C 3551.121 88.539, 3571.291 74.622, 3590.251 84.536 C 3593.124 86.038, 3596.007 87.994, 3596.656 88.882 C 3597.305 89.770, 3597.990 90.273, 3598.179 89.998 C 3598.471 89.573, 3603.281 83.197, 3606.258 79.288 C 3607.839 77.213, 3594.184 69.147, 3586.241 67.463 C 3578.758 65.878, 3576.874 65.838, 3569.244 67.110 M 3990.919 67.370 C 3988.400 68.049, 3985.700 69.128, 3984.919 69.768 C 3977.564 75.794, 3975.276 78.088, 3972.916 81.802 C 3971.412 84.168, 3969.980 85.743, 3969.733 85.302 C 3969.486 84.861, 3969.186 81.364, 3969.065 77.530 C 3968.945 73.697, 3968.629 70.209, 3968.364 69.780 C 3968.099 69.351, 3964.759 69, 3960.941 69 L 3954 69 3954 118 L 3954 167 3962.500 167 L 3971 167 3971 136.083 C 3971 107.974, 3971.171 104.772, 3972.888 100.833 C 3977.967 89.177, 3986.171 82.705, 3995.830 82.733 C 3998.949 82.742, 4002.356 82.918, 4003.401 83.124 C 4004.971 83.435, 4005.530 82.543, 4006.609 78 C 4008.818 68.699, 4008.689 68.313, 4002.951 67.083 C 3996.929 65.791, 3996.759 65.795, 3990.919 67.370 M 4050 67.574 C 4040.142 70.158, 4032.251 75.367, 4026.228 83.264 C 4020.892 90.262, 4019.250 93.703, 4016.944 102.718 C 4011.757 122.999, 4017.462 146.345, 4030.371 157.662 C 4035.606 162.251, 4046.137 167.761, 4051 168.455 C 4052.925 168.730, 4056.329 169.238, 4058.566 169.584 C 4066.536 170.818, 4085.440 165.798, 4092.603 160.545 C 4094.441 159.197, 4094.406 158.979, 4091.500 153.580 C 4089.850 150.515, 4088.188 148.005, 4087.807 148.003 C 4087.426 148.002, 4085.525 148.938, 4083.582 150.084 C 4075.482 154.863, 4061.423 156.386, 4052.734 153.425 C 4046.764 151.391, 4039.530 144.987, 4036.577 139.123 C 4034.584 135.166, 4032 126.035, 4032 122.951 C 4032 122.369, 4044.806 122, 4065 122 L 4098 122 4097.985 112.750 C 4097.944 86.827, 4086.382 70.377, 4065.862 67.047 C 4057.917 65.758, 4056.780 65.796, 4050 67.574 M 991 118 L 991 167 999.500 167 L 1008 167 1008 118 L 1008 69 999.500 69 L 991 69 991 118 M 1755 118 L 1755 167 1763.500 167 L 1772 167 1772 118 L 1772 69 1763.500 69 L 1755 69 1755 118 M 1868.192 108.750 C 1868.497 148.075, 1868.525 148.556, 1870.863 153.727 C 1873.658 159.909, 1880.113 166.202, 1885.584 168.078 C 1887.738 168.817, 1893.100 169.412, 1897.500 169.401 C 1907.897 169.375, 1914.687 166.387, 1923.434 157.988 L 1929.757 151.916 1930.464 159.458 L 1931.171 167 1938.085 167 L 1945 167 1945 118 L 1945 69 1936.500 69 L 1928 69 1928 103.879 L 1928 138.758 1921.218 145.155 C 1914.038 151.929, 1909.562 154, 1902.102 154 C 1893.371 154, 1887.359 148.970, 1885.138 139.807 C 1884.405 136.785, 1884 123.344, 1884 102.057 L 1884 69 1875.942 69 L 1867.885 69 1868.192 108.750 M 3490 118 L 3490 167 3499 167 L 3508 167 3508 118 L 3508 69 3499 69 L 3490 69 3490 118 M 3626.169 108.250 C 3626.499 147.380, 3626.507 147.515, 3628.915 152.500 C 3632.575 160.076, 3634.731 162.759, 3639.315 165.437 C 3646.570 169.675, 3655.365 170.789, 3664.054 168.569 C 3671.234 166.735, 3676.104 163.853, 3683.127 157.285 L 3687.857 152.861 3688.415 157.180 C 3688.722 159.556, 3689.092 162.625, 3689.237 164 C 3689.488 166.381, 3689.844 166.514, 3696.750 166.794 L 3704 167.088 3704 118.044 L 3704 69 3695.500 69 L 3687 69 3687 103.475 L 3687 137.951 3680.642 144.467 C 3673.253 152.040, 3669.269 154, 3661.267 154 C 3653.316 154, 3649.162 151.668, 3646 145.432 L 3643.500 140.500 3643.173 104.750 L 3642.845 69 3634.342 69 L 3625.839 69 3626.169 108.250 M 3847.178 108.250 L 3847.500 147.500 3850.308 153.497 C 3853.609 160.547, 3856.163 163.509, 3861.146 166.065 C 3866.258 168.686, 3870.454 169.503, 3878.230 169.391 C 3886.744 169.268, 3895.043 165.418, 3903.201 157.808 L 3908.889 152.500 3909.562 159.750 L 3910.235 167 3917.617 167 L 3925 167 3925 118 L 3925 69 3916.500 69 L 3908 69 3908 103.549 L 3908 138.098 3902.039 144.041 C 3893.901 152.154, 3887.872 154.854, 3879.974 153.922 C 3872.402 153.030, 3869.369 151.035, 3866.656 145.166 C 3864.595 140.706, 3864.487 138.921, 3864.203 104.750 L 3863.906 69 3855.381 69 L 3846.856 69 3847.178 108.250 M 3344.500 81.423 C 3336.587 84.969, 3333.520 90.757, 3333.509 102.164 C 3333.501 110.208, 3333.717 111.137, 3336.542 115.155 C 3344.140 125.966, 3358.447 127.183, 3367.147 117.759 C 3373.894 110.449, 3375.125 99.744, 3370.322 90.142 C 3368.050 85.599, 3366.624 84.070, 3363 82.291 C 3357.790 79.734, 3349.171 79.330, 3344.500 81.423 M 1066.026 83.624 C 1060.738 86.104, 1057.340 89.608, 1053.650 96.385 C 1050.556 102.067, 1050.164 103.720, 1049.340 114.586 C 1048.092 131.029, 1054.133 145.784, 1064.817 152.387 C 1066.947 153.703, 1072.132 154.505, 1078 154.425 C 1094.443 154.201, 1105.430 136.998, 1103.692 114.202 C 1102.936 104.292, 1102.690 103.284, 1099.386 96.535 C 1095.820 89.254, 1090.502 84.492, 1083.735 82.525 C 1077.037 80.578, 1071.829 80.901, 1066.026 83.624 M 2066.220 83.578 C 2063.375 84.996, 2059.839 87.583, 2058.364 89.328 C 2055.072 93.219, 2051.084 101.707, 2050.312 106.465 L 2049.738 110 2075.512 110 L 2101.285 110 2100.648 103.907 C 2099.502 92.944, 2093.648 84.108, 2086.150 82.025 C 2079.490 80.175, 2071.854 80.770, 2066.220 83.578 M 2211.733 82.047 C 2203.091 84.178, 2194.473 93.591, 2192.420 103.141 C 2189.498 116.733, 2190.033 128.658, 2193.966 137.622 C 2196.359 143.078, 2202.390 149.636, 2207.432 152.269 C 2215.467 156.463, 2228.205 154.544, 2235.320 148.067 C 2243.671 140.465, 2247.828 124.370, 2245.481 108.720 C 2245.097 106.163, 2243.145 100.796, 2241.142 96.793 C 2238.126 90.767, 2236.554 88.878, 2232 85.813 C 2225.909 81.713, 2218.595 80.354, 2211.733 82.047 M 2512.222 82.433 C 2499.950 86.370, 2492.045 100.206, 2491.907 117.988 C 2491.764 136.283, 2499.628 149.801, 2512.611 153.575 C 2523.827 156.836, 2532.816 153.508, 2540.694 143.179 C 2547.015 134.892, 2548.937 119.325, 2545.607 103.379 C 2544.946 100.210, 2540.373 91.845, 2537.748 89 C 2531.715 82.465, 2520.842 79.667, 2512.222 82.433 M 2621.120 82.112 C 2616.837 83.395, 2613.304 85.690, 2609.744 89.500 C 2605.419 94.130, 2603.267 98.941, 2601.345 108.278 C 2599.622 116.645, 2599.871 122.918, 2602.350 133.652 C 2603.921 140.451, 2609.663 147.954, 2615.889 151.343 C 2622.611 155.002, 2628.605 155.683, 2635.205 153.540 C 2642.275 151.244, 2646.432 147.924, 2649.951 141.763 C 2660.788 122.788, 2656.187 94.440, 2640.726 84.927 C 2635.146 81.493, 2627.059 80.332, 2621.120 82.112 M 2732 81.966 C 2723.802 83.551, 2717.154 89.394, 2712.618 99 C 2710.041 104.458, 2709.465 107.090, 2709.024 115.412 C 2708.037 134.073, 2713.216 146.467, 2724.405 152.225 C 2728.249 154.203, 2737.454 155.029, 2742 153.804 C 2745.810 152.777, 2750.969 149.609, 2755.285 145.647 L 2760 141.318 2760 116.256 L 2760 91.194 2754.601 87.611 C 2746.121 81.982, 2739.922 80.434, 2732 81.966 M 3090.821 82.388 C 3077.815 85.910, 3070.167 98.907, 3069.987 117.792 C 3069.936 123.131, 3070.096 128.402, 3070.342 129.504 C 3074.071 146.177, 3082.106 154.328, 3094.797 154.312 C 3097.934 154.308, 3101.756 154.038, 3103.291 153.711 C 3106.674 152.992, 3118.576 144.661, 3119.987 142.025 C 3120.590 140.897, 3121 130.418, 3121 116.105 C 3121 88.559, 3121.605 90.417, 3110.858 84.950 C 3104.145 81.536, 3097.231 80.651, 3090.821 82.388 M 4048.273 83.533 C 4045.399 84.975, 4041.839 87.583, 4040.364 89.328 C 4037.120 93.162, 4033.446 101.129, 4032.559 106.250 L 4031.909 110 4057.205 109.995 L 4082.500 109.990 4082.729 105.975 C 4083.002 101.180, 4079.796 92.100, 4076.411 88.076 C 4072.267 83.152, 4068.151 81.356, 4060.476 81.123 C 4054.678 80.946, 4052.618 81.353, 4048.273 83.533 M 868.450 117.884 C 868.239 118.095, 866.968 118.388, 865.627 118.535 C 864.286 118.683, 860.559 119.597, 857.344 120.568 C 854.130 121.538, 850.957 122.440, 850.293 122.571 C 847.672 123.090, 840.428 128.725, 838.276 131.919 C 835.148 136.560, 835.136 144.431, 838.250 149.021 C 843.688 157.036, 858.697 156.991, 870.500 148.923 C 879.157 143.006, 879 143.367, 879 129.411 L 879 116.899 873.918 117.200 C 871.122 117.365, 868.662 117.673, 868.450 117.884 M 1296.540 117.794 C 1296.378 117.956, 1294.953 118.308, 1293.373 118.578 C 1291.793 118.848, 1288.025 119.803, 1285 120.700 C 1281.975 121.598, 1278.971 122.438, 1278.325 122.567 C 1277.678 122.696, 1275.088 124.219, 1272.568 125.953 C 1264.835 131.274, 1262.011 140.005, 1265.586 147.540 C 1268.184 153.014, 1271.347 154.485, 1280.536 154.493 C 1289.380 154.501, 1294.911 152.380, 1302.997 145.882 L 1307 142.665 1307 129.782 L 1307 116.899 1301.918 117.200 C 1299.122 117.365, 1296.703 117.632, 1296.540 117.794 M 2890 118.955 C 2869.551 123.321, 2861.750 129.301, 2861.750 140.609 C 2861.750 150.879, 2867.656 155.432, 2880 154.677 C 2886.429 154.284, 2888.395 153.685, 2893.768 150.482 C 2904.187 144.270, 2904.098 144.445, 2904.313 129.747 L 2904.500 117 2901.500 117.070 C 2899.850 117.109, 2894.675 117.957, 2890 118.955 M 3334.675 169.379 C 3330.444 172.920, 3328.008 178.028, 3328.004 183.368 C 3328 187.668, 3328.440 188.676, 3331.778 192.013 C 3336.535 196.770, 3343.293 198.867, 3354.259 198.989 C 3358.792 199.039, 3363.175 198.930, 3364 198.747 C 3368.848 197.669, 3375 195.452, 3375 194.782 C 3375 194.352, 3375.567 194, 3376.260 194 C 3378.264 194, 3383.094 189.020, 3384.611 185.389 C 3387.396 178.722, 3385.679 173.991, 3379.362 170.933 C 3375.520 169.073, 3373.309 168.845, 3359.766 168.908 C 3351.370 168.947, 3342.860 168.591, 3340.855 168.118 C 3337.819 167.402, 3336.786 167.612, 3334.675 169.379 M 494.750 214.749 C 505.337 214.911, 522.663 214.911, 533.250 214.749 C 543.837 214.587, 535.175 214.454, 514 214.454 C 492.825 214.454, 484.163 214.587, 494.750 214.749 M 494.750 216.749 C 505.337 216.911, 522.663 216.911, 533.250 216.749 C 543.837 216.587, 535.175 216.454, 514 216.454 C 492.825 216.454, 484.163 216.587, 494.750 216.749 M 494.750 218.749 C 505.337 218.911, 522.663 218.911, 533.250 218.749 C 543.837 218.587, 535.175 218.454, 514 218.454 C 492.825 218.454, 484.163 218.587, 494.750 218.749 M 494.750 220.749 C 505.337 220.911, 522.663 220.911, 533.250 220.749 C 543.837 220.587, 535.175 220.454, 514 220.454 C 492.825 220.454, 484.163 220.587, 494.750 220.749 M 62 235.030 C 42.577 235.509, 43.737 235.568, 74 235.644 C 92.425 235.690, 106.600 235.577, 105.500 235.393 C 101.234 234.679, 82.569 234.523, 62 235.030 M 60.311 237.748 C 68.457 237.916, 81.507 237.916, 89.311 237.747 C 97.115 237.579, 90.450 237.441, 74.500 237.441 C 58.550 237.442, 52.165 237.580, 60.311 237.748 M 65.306 239.747 C 71.800 239.922, 82.150 239.921, 88.306 239.746 C 94.463 239.571, 89.150 239.428, 76.500 239.429 C 63.850 239.429, 58.813 239.573, 65.306 239.747 M 485 240.059 C 479.775 240.366, 492.787 240.703, 513.917 240.809 C 535.046 240.914, 552.094 240.761, 551.802 240.469 C 551.053 239.719, 496.469 239.384, 485 240.059 M 496.250 242.749 C 506.563 242.911, 523.438 242.911, 533.750 242.749 C 544.063 242.586, 535.625 242.453, 515 242.453 C 494.375 242.453, 485.938 242.586, 496.250 242.749 M 499.250 244.748 C 509.013 244.912, 524.988 244.912, 534.750 244.748 C 544.513 244.585, 536.525 244.451, 517 244.451 C 497.475 244.451, 489.488 244.585, 499.250 244.748 M 519 246.992 L 550.500 247.526 523 248.030 L 495.500 248.534 522.579 248.767 L 549.658 249 549.222 261.250 C 548.982 267.988, 548.609 273.688, 548.393 273.917 C 548.177 274.146, 548 270.257, 548 265.276 L 548 256.218 544.750 256.555 C 542.962 256.741, 538.350 257.357, 534.500 257.925 C 530.650 258.493, 507.925 259.414, 484 259.971 C 400.320 261.919, 395.613 262.092, 347.500 265.003 C 338.150 265.568, 323.300 266.362, 314.500 266.766 C 305.700 267.170, 298.036 267.803, 297.468 268.174 C 296.901 268.545, 281.038 268.970, 262.218 269.119 C 243.398 269.268, 228 269.780, 228 270.256 C 228 271.547, 218.778 269.921, 217.211 268.354 C 216.466 267.609, 214.202 266.920, 212.179 266.822 C 207.070 266.574, 206.113 266.629, 201 267.459 C 198.525 267.861, 195.488 268.195, 194.250 268.201 C 193.013 268.207, 192 268.662, 192 269.213 C 192 269.763, 191.380 269.976, 190.623 269.686 C 189.866 269.395, 187.278 269.604, 184.873 270.149 C 179.043 271.471, 174.875 272.157, 172.770 272.141 C 171.818 272.133, 170.791 272.529, 170.488 273.020 C 170.184 273.511, 169.321 273.677, 168.569 273.388 C 167.817 273.100, 166.917 273.325, 166.569 273.888 C 166.221 274.452, 165.377 274.698, 164.694 274.436 C 164.011 274.174, 161.249 274.623, 158.555 275.433 C 155.862 276.244, 153.316 276.696, 152.898 276.437 C 152.480 276.179, 151.844 276.443, 151.485 277.024 C 151.126 277.606, 150.007 277.820, 149 277.500 C 147.993 277.180, 146.874 277.394, 146.515 277.976 C 146.156 278.557, 145.507 278.814, 145.074 278.546 C 144.641 278.278, 141.246 278.929, 137.529 279.992 C 133.813 281.054, 130.486 281.888, 130.136 281.844 C 129.786 281.799, 129.275 281.854, 129 281.965 C 128.725 282.076, 127.600 282.284, 126.500 282.429 C 125.400 282.573, 121.800 283.407, 118.500 284.282 C 115.200 285.158, 109.575 286.590, 106 287.466 C 102.425 288.342, 98.600 289.294, 97.500 289.581 C 96.400 289.868, 94.375 290.326, 93 290.598 C 91.625 290.871, 88.250 291.749, 85.500 292.550 C 82.750 293.351, 73.300 296.059, 64.500 298.568 C 55.700 301.076, 40.288 305.827, 30.250 309.125 L 12 315.121 12 353.061 L 12 391 282.128 391 L 552.257 391 551.878 318.500 L 551.500 246.001 519.500 246.229 L 487.500 246.457 519 246.992 M 811.806 264.339 C 806.986 265.698, 805.563 266.543, 800.668 270.950 C 792.906 277.939, 793.148 292.247, 801.153 299.679 C 802.444 300.878, 809.575 304.747, 817 308.277 C 824.425 311.808, 831.400 315.712, 832.500 316.953 C 833.908 318.541, 834.500 320.629, 834.500 324 C 834.500 331.834, 828.789 336.143, 818.404 336.143 C 812.674 336.143, 800.385 331.166, 799.331 328.419 C 798.417 326.039, 796.376 326.818, 793.439 330.669 L 790.641 334.337 794.071 337.208 C 810.608 351.054, 838.805 347.759, 844.405 331.325 C 847.456 322.371, 845.879 314.609, 839.699 308.162 C 836.235 304.549, 829.632 300.701, 828.624 301.710 C 828.281 302.053, 828 301.808, 828 301.167 C 828 300.525, 827.663 300.073, 827.250 300.161 C 825.002 300.646, 810.261 293.147, 808.127 290.434 C 805.867 287.561, 805.318 282.142, 806.974 279.048 C 810.991 271.544, 827.347 271.617, 835.628 279.177 C 837.753 281.116, 837.761 281.114, 840.911 277.310 L 844.066 273.500 841.365 271.329 C 832.955 264.567, 821.015 261.744, 811.806 264.339 M 1651.344 263.983 C 1629.745 268.558, 1618.254 297.259, 1627.717 323 C 1634.530 341.533, 1650.249 349.763, 1668.628 344.420 C 1678.322 341.602, 1688.614 329.741, 1690.823 318.841 C 1691.721 314.412, 1691.689 295.618, 1690.775 290.221 C 1689.896 285.031, 1685.935 277.845, 1681.090 272.652 C 1674.370 265.448, 1661.767 261.775, 1651.344 263.983 M 1879.197 264.497 C 1872.854 266.278, 1870.680 267.364, 1865.791 271.196 C 1861.948 274.208, 1855.260 284.215, 1854.418 288.214 C 1851.450 302.301, 1851.317 307.031, 1853.599 317.303 C 1855.659 326.571, 1858.616 331.607, 1865.714 337.933 C 1872.490 343.972, 1876.715 345.433, 1887.500 345.467 C 1898.513 345.501, 1901.711 344.577, 1908.750 339.324 L 1912 336.898 1912 319.949 L 1912 303 1899 303 L 1886 303 1886 307.500 L 1886 312 1894.500 312 L 1903 312 1903 321.980 L 1903 331.959 1899.040 333.980 C 1889.586 338.803, 1875 335.220, 1869.084 326.622 C 1861.694 315.881, 1860.940 297.685, 1867.370 285.251 C 1871.240 277.767, 1882.809 272.074, 1891.368 273.443 C 1895.854 274.160, 1904 277.858, 1904 279.177 C 1904 280.993, 1906.653 279.671, 1909.220 276.575 L 1911.939 273.295 1907.720 270.285 C 1905.399 268.630, 1902.025 266.521, 1900.222 265.598 C 1895.572 263.218, 1885.610 262.696, 1879.197 264.497 M 2055.326 264.044 C 2042.946 266.492, 2032.647 276.915, 2029.526 290.153 C 2027.642 298.145, 2027.592 312.877, 2029.425 319.764 C 2032.507 331.341, 2041.859 341.644, 2051.977 344.609 C 2060.595 347.134, 2070.688 346.039, 2077.641 341.825 C 2080.650 340.002, 2083.985 337.581, 2085.051 336.446 C 2086.978 334.394, 2086.970 334.363, 2083.612 331.108 L 2080.234 327.835 2075.540 331.418 C 2069.895 335.727, 2067.671 336.364, 2060.214 335.812 C 2056.165 335.512, 2053.308 334.595, 2050.410 332.667 C 2046.208 329.871, 2041.374 323.508, 2040.536 319.667 C 2040.276 318.475, 2039.558 315.475, 2038.942 313 C 2037.564 307.470, 2038.192 298.444, 2040.501 290.583 C 2042.985 282.126, 2049.559 275.648, 2057.286 274.044 C 2064.248 272.599, 2068.506 273.363, 2074.088 277.058 L 2078.448 279.945 2081.224 277.285 C 2084.491 274.156, 2084.541 273.877, 2082.250 271.645 C 2078.042 267.544, 2075.355 265.886, 2070.654 264.490 C 2065.203 262.871, 2061.765 262.771, 2055.326 264.044 M 691.215 295.250 C 691.521 321.876, 691.780 325.979, 693.380 329.500 C 696.202 335.714, 699.647 339.708, 704.784 342.724 C 709.040 345.223, 710.426 345.493, 719 345.496 C 729.917 345.501, 734.351 343.919, 739.843 338.064 C 746.818 330.627, 747.224 328.352, 747.735 293.750 L 748.161 265 743.080 265 L 738 265 737.980 288.750 C 737.956 316.489, 737.163 323.645, 733.494 329.188 C 728.915 336.107, 719.220 338.194, 711.039 334.020 C 707.695 332.314, 706.284 330.706, 704.166 326.187 C 701.507 320.516, 701.499 320.423, 701.192 292.750 L 700.884 265 695.876 265 L 690.868 265 691.215 295.250 M 915.238 304.647 L 915.500 344.500 928.500 344.500 C 945.719 344.500, 948.823 343.876, 957.269 338.718 C 962.849 335.310, 967.350 329.202, 970.036 321.394 C 972.171 315.191, 972.865 295.919, 971.149 290.500 C 967.650 279.452, 961.911 272.412, 953 268.236 C 947.964 265.876, 946.127 265.622, 931.238 265.226 L 914.977 264.794 915.238 304.647 M 989 305 L 989 345 1012.500 345 L 1036 345 1036 340 L 1036 335 1017.750 335.002 L 999.500 335.003 999.798 321.252 L 1000.096 307.500 1014.548 307.801 L 1029 308.103 1029 303.051 L 1029 298 1014.250 298.002 L 999.500 298.004 999.809 285.961 L 1000.119 273.918 1017.309 274.054 L 1034.500 274.191 1034.805 269.595 L 1035.110 265 1012.055 265 L 989 265 989 305 M 1052 305.052 L 1052 345.105 1057.250 344.802 L 1062.500 344.500 1062.775 328.750 L 1063.051 313 1073.621 313 C 1087.858 313, 1093.267 311.356, 1099.170 305.237 C 1104.472 299.740, 1106 295.896, 1106 288.047 C 1106 278.821, 1099.895 268.967, 1093.271 267.501 C 1092.297 267.286, 1089.928 266.635, 1088.007 266.055 C 1086.085 265.475, 1077.198 265, 1068.257 265 L 1052 265 1052 305.052 M 1130.721 267.206 C 1130.430 268.467, 1124.524 286.107, 1117.596 306.405 C 1110.668 326.702, 1105 343.713, 1105 344.207 C 1105 344.701, 1107.362 344.969, 1110.250 344.802 L 1115.500 344.500 1119.500 332.500 L 1123.500 320.500 1137.524 320.776 L 1151.549 321.052 1155.138 332.776 L 1158.727 344.500 1164.490 344.804 C 1170.064 345.097, 1170.235 345.032, 1169.689 342.804 C 1169.127 340.510, 1154.547 297.457, 1147.236 276.500 L 1143.399 265.500 1137.324 265.206 C 1131.698 264.933, 1131.211 265.080, 1130.721 267.206 M 1181 305 L 1181 345 1186 345 L 1191 345 1191 328 L 1191 311 1197.885 311 L 1204.770 311 1214.471 328 L 1224.172 345 1229.586 345 C 1235.788 345, 1236.428 343.785, 1232.977 338.562 C 1231.864 336.878, 1227.633 329.875, 1223.573 323 L 1216.193 310.500 1220.847 308.134 C 1227.127 304.942, 1228.846 303.284, 1231.360 298 C 1232.903 294.754, 1233.480 291.688, 1233.428 287 C 1233.349 279.759, 1231.818 276.015, 1227.021 271.324 C 1221.825 266.245, 1215.991 265, 1197.385 265 L 1181 265 1181 305 M 1241.195 269.599 L 1241.500 274.198 1252.786 274.349 L 1264.073 274.500 1264.286 309.500 L 1264.500 344.500 1269.750 344.802 L 1275 345.105 1275 309.499 L 1275 273.894 1286.750 274.073 L 1298.500 274.251 1298.805 269.626 L 1299.110 265 1270 265 L 1240.890 265 1241.195 269.599 M 1312.239 304.750 L 1312.500 344.500 1317.250 344.805 L 1322 345.110 1322.093 320.805 C 1322.196 293.726, 1322.121 289.281, 1321.465 283.500 C 1321.112 280.392, 1321.770 281.506, 1324.414 288.500 C 1326.286 293.450, 1329.020 300.650, 1330.490 304.500 C 1331.960 308.350, 1333.768 313.300, 1334.509 315.500 C 1336.668 321.909, 1340.958 333.053, 1342.058 335.108 C 1342.692 336.293, 1344.149 337, 1345.956 337 C 1348.370 337, 1348.952 336.493, 1349.523 333.896 C 1349.898 332.188, 1351.088 328.794, 1352.168 326.353 C 1353.248 323.912, 1354.308 321.147, 1354.525 320.207 C 1354.741 319.268, 1356.544 314.225, 1358.531 309 C 1360.518 303.775, 1363.559 295.337, 1365.290 290.250 C 1367.020 285.163, 1368.675 281, 1368.968 280.999 C 1369.261 280.999, 1369.364 295.399, 1369.198 312.999 L 1368.896 345 1373.448 345 L 1378 345 1378 305 L 1378 265 1372.216 265 L 1366.431 265 1364.629 269.750 C 1362.262 275.986, 1351.227 307.107, 1349.116 313.500 C 1346.021 322.869, 1345.669 322.939, 1342.625 314.805 C 1341.122 310.787, 1339.089 305.250, 1338.109 302.500 C 1337.128 299.750, 1335.758 295.925, 1335.065 294 C 1334.372 292.075, 1333.118 288.250, 1332.279 285.500 C 1331.439 282.750, 1330.418 280.050, 1330.009 279.500 C 1329.601 278.950, 1328.270 275.462, 1327.052 271.750 L 1324.837 265 1318.407 265 L 1311.977 265 1312.239 304.750 M 1400 305 L 1400 345 1423 345 L 1446 345 1446 340 L 1446 335 1428 335 L 1410 335 1409.999 321.250 L 1409.997 307.500 1424.999 307.800 L 1440 308.100 1440 303.050 L 1440 298 1425 298 L 1410 298 1410 285.959 L 1410 273.919 1427.750 274.053 L 1445.500 274.187 1445.805 269.593 L 1446.110 265 1423.055 265 L 1400 265 1400 305 M 1463 305 L 1463 345 1468.104 345 L 1473.207 345 1472.854 313.134 C 1472.595 289.845, 1472.794 281.703, 1473.594 282.884 C 1474.196 283.773, 1476.869 288.550, 1479.535 293.500 C 1482.201 298.450, 1486.913 306.775, 1490.006 312 C 1493.099 317.225, 1495.948 322.175, 1496.335 323 C 1496.723 323.825, 1499.668 329, 1502.879 334.500 L 1508.719 344.500 1514.109 344.500 L 1519.500 344.500 1519.761 304.750 L 1520.023 265 1514.511 265 L 1509 265 1509.080 288.750 C 1509.123 301.813, 1509.496 316.325, 1509.908 321 C 1510.320 325.675, 1510.556 329.640, 1510.433 329.812 C 1510.310 329.983, 1507.630 325.258, 1504.477 319.312 C 1496.820 304.871, 1495.405 302.291, 1492.216 296.957 C 1490.722 294.458, 1486.845 287.708, 1483.600 281.957 C 1473.623 264.274, 1474.293 265.015, 1468.250 265.007 L 1463 265 1463 305 M 1533.195 269.599 L 1533.500 274.198 1545 274.349 L 1556.500 274.500 1556.763 309.750 L 1557.026 345 1562.013 345 L 1567 345 1567 309.500 L 1567 274 1579 274 L 1591 274 1591 269.500 L 1591 265 1561.945 265 L 1532.890 265 1533.195 269.599 M 1709 305 L 1709 345 1714 345 L 1719 345 1719 327 L 1719 309 1734.500 309 L 1750 309 1750 304.500 L 1750 300 1734.470 300 L 1718.940 300 1719.220 287.250 L 1719.500 274.500 1737 274.323 L 1754.500 274.146 1754.805 269.573 L 1755.110 265 1732.055 265 L 1709 265 1709 305 M 1807.919 267.700 C 1807.330 269.240, 1804.643 277.149, 1801.946 285.275 C 1799.250 293.401, 1796.605 300.869, 1796.070 301.870 C 1795.534 302.871, 1794.884 304.773, 1794.627 306.095 C 1794.369 307.418, 1793.413 310.525, 1792.503 313 C 1791.593 315.475, 1790.700 318.175, 1790.520 319 C 1790.340 319.825, 1789.044 323.538, 1787.641 327.250 C 1786.238 330.962, 1785.271 334, 1785.494 334 C 1785.716 334, 1785.300 335.462, 1784.569 337.250 C 1781.283 345.285, 1781.234 345.144, 1787.165 344.805 L 1792.500 344.500 1796.331 332.750 L 1800.162 321 1814.384 321 L 1828.605 321 1830.157 325.750 C 1831.011 328.363, 1832.771 333.762, 1834.068 337.750 L 1836.427 345 1841.830 345 C 1846.936 345, 1847.202 344.876, 1846.663 342.750 C 1846.102 340.541, 1830.242 293.677, 1823.733 275 L 1820.423 265.500 1814.706 265.200 C 1809.251 264.914, 1808.940 265.028, 1807.919 267.700 M 1931 305 L 1931 345 1935.976 345 L 1940.952 345 1941.226 328.250 L 1941.500 311.500 1948.119 311.207 L 1954.739 310.915 1960.369 320.582 C 1963.466 325.900, 1966 330.612, 1966 331.054 C 1966 331.496, 1966.563 332.470, 1967.250 333.219 C 1967.938 333.968, 1969.705 336.813, 1971.177 339.541 C 1973.742 344.292, 1974.051 344.513, 1978.550 344.810 C 1986.501 345.334, 1986.531 345.074, 1979.792 333.793 C 1976.411 328.132, 1972.572 321.511, 1971.260 319.081 C 1969.949 316.650, 1968.229 313.737, 1967.438 312.608 C 1965.554 309.918, 1965.621 309.454, 1967.918 309.281 C 1970.866 309.059, 1977.237 304.415, 1979.812 300.611 C 1982.442 296.726, 1983.621 288.624, 1982.573 281.639 C 1982.060 278.214, 1980.837 275.922, 1977.694 272.487 C 1971.943 266.202, 1967.080 265.027, 1946.750 265.012 L 1931 265 1931 305 M 2001 305 L 2001 345 2006 345 L 2011 345 2011 305 L 2011 265 2006 265 L 2001 265 2001 305 M 2098.781 292.099 C 2098.487 320.461, 2098.961 325.237, 2102.813 332.689 C 2107.380 341.525, 2115.586 346, 2127.222 346 C 2139.234 346, 2147.113 341.363, 2151.543 331.687 C 2155.372 323.324, 2156 317.498, 2156 290.364 L 2156 265 2150.500 265 L 2145 265 2144.926 292.250 C 2144.846 321.642, 2144.779 322.555, 2142.364 327.646 C 2139.898 332.843, 2135.602 335.367, 2128.449 335.822 C 2119.490 336.393, 2114.776 333.704, 2111.360 326.074 C 2109.196 321.242, 2109.146 320.469, 2109.069 291.250 L 2109 265 2104.031 265 L 2099.063 265 2098.781 292.099 M 2177 305 L 2177 345 2199 345 L 2221 345 2221 340 L 2221 335 2204 335 L 2187 335 2187 300 L 2187 265 2182 265 L 2177 265 2177 305 M 2213.195 269.599 L 2213.500 274.198 2225 274.349 L 2236.500 274.500 2236.763 309.750 L 2237.026 345 2242 345 L 2246.974 345 2247.237 309.750 L 2247.500 274.500 2259 274.349 L 2270.500 274.198 2270.805 269.599 L 2271.110 265 2242 265 L 2212.890 265 2213.195 269.599 M 2284.015 291.250 C 2284.034 324.889, 2285.331 331.369, 2293.665 339.463 C 2303.308 348.828, 2323.735 348.057, 2333.138 337.974 C 2339.701 330.935, 2340.307 327.458, 2340.760 294.250 L 2341.158 265 2336.079 265 L 2331 265 2331 291.634 C 2331 319.887, 2330.489 324.013, 2326.281 329.751 C 2321.445 336.345, 2312.089 338.127, 2303.991 333.995 C 2300.697 332.315, 2299.284 330.695, 2297.183 326.188 C 2294.546 320.531, 2294.529 320.348, 2294.195 292.750 L 2293.859 265 2288.929 265 L 2284 265 2284.015 291.250 M 2362 304.921 L 2362 345 2366.976 345 L 2371.952 345 2372.226 328.250 L 2372.500 311.500 2379.627 311.209 C 2385.719 310.960, 2386.853 311.178, 2387.435 312.709 C 2387.810 313.694, 2392.021 321.363, 2396.794 329.750 L 2405.471 345 2411.236 345 C 2414.406 345, 2417 344.837, 2417 344.638 C 2417 344.019, 2409.631 330.959, 2403.322 320.399 L 2397.287 310.298 2400.710 309.060 C 2404.872 307.555, 2410.604 302.667, 2412.495 299.010 C 2413.447 297.169, 2413.826 293.318, 2413.694 286.828 C 2413.515 278.052, 2413.283 277.054, 2410.608 273.551 C 2405.398 266.725, 2401.137 265.548, 2380.250 265.171 L 2362 264.841 2362 304.921 M 2432 305 L 2432 345 2455 345 L 2478 345 2478 340 L 2478 335 2460 335 L 2442 335 2442 321.500 L 2442 308 2457 308 L 2472 308 2472 303 L 2472 298 2456.968 298 L 2441.937 298 2442.218 286.250 L 2442.500 274.500 2459 274.284 C 2468.075 274.165, 2476.063 274.053, 2476.750 274.034 C 2477.560 274.012, 2478 272.415, 2478 269.500 L 2478 265 2455 265 L 2432 265 2432 305 M 69 270.784 C 59.397 273.717, 12 295.739, 12 297.267 C 12 297.788, 12.788 297.885, 13.750 297.483 C 14.713 297.081, 22.683 294.318, 31.462 291.342 C 40.242 288.366, 47.673 285.529, 47.977 285.037 C 48.281 284.546, 49.198 284.182, 50.015 284.229 C 54.113 284.466, 56.182 283.916, 55.721 282.714 C 55.430 281.958, 55.974 281.429, 57.040 281.429 C 58.037 281.429, 58.661 281.740, 58.425 282.121 C 58.190 282.502, 58.893 282.579, 59.987 282.293 C 61.082 282.007, 61.688 281.304, 61.334 280.732 C 60.980 280.159, 61.109 279.949, 61.620 280.265 C 62.131 280.581, 64.113 280.510, 66.025 280.107 C 68.659 279.552, 69.421 278.931, 69.172 277.538 C 68.866 275.827, 68.957 275.814, 70.502 277.360 C 71.953 278.810, 74 278.824, 74 277.382 C 74 277.107, 73.581 277.141, 73.069 277.457 C 72.557 277.774, 71.856 277.575, 71.510 277.016 C 71.162 276.454, 71.801 276, 72.941 276 C 74.073 276, 75.007 276.563, 75.015 277.250 C 75.026 278.155, 75.271 278.120, 75.904 277.122 C 76.384 276.364, 77.277 276.053, 77.888 276.431 C 78.500 276.809, 79 276.613, 79 275.996 C 79 275.379, 78.213 274.954, 77.250 275.052 C 76.287 275.150, 74.375 275.119, 73 274.984 C 70.889 274.775, 71.044 274.622, 74 274 L 77.500 273.263 74 273.061 C 71.253 272.903, 70.919 272.695, 72.446 272.098 C 74.375 271.343, 74.375 271.331, 72.446 270.831 C 71.376 270.553, 69.825 270.532, 69 270.784 M 1653.813 273.939 C 1652.336 274.409, 1650.896 274.563, 1650.614 274.281 C 1650.332 273.999, 1647.716 276.183, 1644.801 279.134 C 1637.630 286.393, 1635.486 292.383, 1635.542 305 C 1635.588 315.128, 1637.574 321.752, 1642.636 328.648 C 1648.150 336.162, 1661.491 338.300, 1669.436 332.943 C 1673.312 330.330, 1678.770 322.725, 1679.548 318.854 C 1681.889 307.201, 1682.052 303.161, 1680.491 295.439 C 1678.424 285.217, 1674.872 279.315, 1668.991 276.330 C 1663.780 273.686, 1657.647 272.720, 1653.813 273.939 M 925.999 304.609 L 925.999 335.500 935.374 334.971 C 947.706 334.276, 952.998 331.310, 957.454 322.597 C 960.026 317.568, 960.493 315.414, 960.830 307.017 C 961.713 285.031, 953.979 275.464, 934.332 274.238 L 926 273.718 925.999 304.609 M 1062.999 289.250 L 1062.998 304.500 1074.252 303.952 C 1087.060 303.329, 1090.743 301.860, 1093.385 296.318 C 1095.610 291.653, 1095.452 284.253, 1093.043 280.303 C 1090.452 276.054, 1083.537 274, 1071.818 274 L 1063 274 1062.999 289.250 M 1191 287.874 L 1191 302 1200.750 301.978 C 1214.343 301.947, 1220.962 298.758, 1222.511 291.491 C 1223.302 287.783, 1223.302 287.217, 1222.515 283.531 C 1221.075 276.782, 1216.713 274.773, 1202.250 274.197 L 1191 273.748 1191 287.874 M 1941 288 L 1941 302 1950.788 302 C 1958.950 302, 1961.318 301.626, 1965.038 299.750 C 1972.477 295.999, 1975.212 287.140, 1971.043 280.303 C 1968.452 276.054, 1961.537 274, 1949.818 274 L 1941 274 1941 288 M 2372 288.088 L 2372 302.177 2383.250 301.650 C 2396.551 301.027, 2397 300.962, 2397 299.667 C 2397 299.117, 2397.275 298.942, 2397.611 299.278 C 2397.947 299.614, 2399.410 298.478, 2400.861 296.753 C 2403.100 294.092, 2403.500 292.665, 2403.500 287.331 C 2403.500 281.873, 2403.153 280.698, 2400.864 278.409 C 2397.676 275.222, 2392.518 274.102, 2380.750 274.044 L 2372 274 2372 288.088 M 1135.581 280 C 1134.607 283.025, 1133.647 286.400, 1133.448 287.500 C 1133.250 288.600, 1131.533 294.337, 1129.634 300.250 L 1126.181 311 1137.091 311 C 1143.091 311, 1148 310.721, 1148 310.379 C 1148 310.038, 1145.800 302.726, 1143.112 294.129 C 1140.423 285.533, 1138.028 277.600, 1137.788 276.500 C 1137.486 275.115, 1136.808 276.190, 1135.581 280 M 1812.186 281.500 C 1811.015 285.350, 1808.511 293.563, 1806.621 299.750 L 1803.186 311 1814.093 311 C 1826.088 311, 1826.138 310.968, 1823.591 304.872 C 1822.816 303.017, 1822.187 301.148, 1822.193 300.717 C 1822.202 300.004, 1821.249 296.802, 1816.025 280 L 1814.315 274.500 1812.186 281.500 M 766.174 332.314 C 761.530 337.259, 764.842 346, 771.360 346 C 775.101 346, 779 341.917, 779 338 C 779 331.232, 770.663 327.536, 766.174 332.314 M 860.174 332.314 C 853.518 339.400, 862.610 350.185, 870.116 344.107 C 871.898 342.664, 872.455 341.210, 872.455 338 C 872.455 334.790, 871.898 333.336, 870.116 331.893 C 866.941 329.322, 862.822 329.496, 860.174 332.314 M 146.750 399.750 C 221.138 399.891, 342.863 399.891, 417.250 399.750 C 491.638 399.608, 430.775 399.493, 282 399.493 C 133.225 399.493, 72.363 399.608, 146.750 399.750" stroke="none" fill="#c3c3c3" fill-rule="evenodd"/></svg>