<?xml version="1.0" encoding="UTF-8"?>
<!DOCTYPE svg PUBLIC "-//W3C//DTD SVG 1.1//EN" "http://www.w3.org/Graphics/SVG/1.1/DTD/svg11.dtd">
<svg xmlns="http://www.w3.org/2000/svg" version="1.1" width="512px" height="512px" style="shape-rendering:geometricPrecision; text-rendering:geometricPrecision; image-rendering:optimizeQuality; fill-rule:evenodd; clip-rule:evenodd" xmlns:xlink="http://www.w3.org/1999/xlink">
<g><path style="opacity:0.98" fill="#000000" d="M 232.5,-0.5 C 247.833,-0.5 263.167,-0.5 278.5,-0.5C 369.801,10.883 437.967,56.5496 483,136.5C 498.419,166.864 507.919,198.864 511.5,232.5C 511.5,247.833 511.5,263.167 511.5,278.5C 498.676,377.341 447.342,448.174 357.5,491C 331.755,501.936 305.088,508.769 277.5,511.5C 262.833,511.5 248.167,511.5 233.5,511.5C 140.782,500.408 71.9487,454.075 27,372.5C 12.2182,342.687 3.05154,311.354 -0.5,278.5C -0.5,263.167 -0.5,247.833 -0.5,232.5C 10.8826,141.2 56.5493,73.0337 136.5,28C 166.898,12.6966 198.898,3.19658 232.5,-0.5 Z M 239.5,32.5 C 240.498,56.6609 240.831,80.9943 240.5,105.5C 219.831,105.667 199.164,105.5 178.5,105C 188.045,81.5696 202.045,61.2362 220.5,44C 226.597,39.6251 232.93,35.7918 239.5,32.5 Z M 270.5,32.5 C 291.323,42.8204 307.49,58.1537 319,78.5C 323.899,87.1305 328.399,95.9638 332.5,105C 311.836,105.5 291.169,105.667 270.5,105.5C 270.5,81.1667 270.5,56.8333 270.5,32.5 Z M 174.5,44.5 C 175.376,44.3691 176.043,44.7025 176.5,45.5C 163.012,63.8071 152.679,83.8071 145.5,105.5C 126.164,105.667 106.83,105.5 87.5,105C 112.098,78.3789 141.098,58.2123 174.5,44.5 Z M 334.5,44.5 C 368.89,57.6969 398.557,77.8636 423.5,105C 404.17,105.5 384.836,105.667 365.5,105.5C 358.044,83.5871 347.711,63.2537 334.5,44.5 Z M 64.5,135.5 C 88.169,135.333 111.836,135.5 135.5,136C 126.072,170.162 121.072,204.996 120.5,240.5C 90.5,240.5 60.5,240.5 30.5,240.5C 33.4335,202.701 44.7668,167.701 64.5,135.5 Z M 167.5,135.5 C 191.833,135.5 216.167,135.5 240.5,135.5C 240.5,170.5 240.5,205.5 240.5,240.5C 210.833,240.5 181.167,240.5 151.5,240.5C 152.362,204.798 157.695,169.798 167.5,135.5 Z M 270.5,135.5 C 294.842,135.167 319.176,135.5 343.5,136.5C 353.398,170.451 358.731,205.118 359.5,240.5C 329.833,240.5 300.167,240.5 270.5,240.5C 270.5,205.5 270.5,170.5 270.5,135.5 Z M 375.5,136.5 C 398.996,135.337 422.663,135.17 446.5,136C 466.334,168.004 477.668,202.837 480.5,240.5C 450.5,240.5 420.5,240.5 390.5,240.5C 389.961,205.058 384.961,170.391 375.5,136.5 Z M 30.5,270.5 C 60.5,270.5 90.5,270.5 120.5,270.5C 121.072,306.005 126.072,340.838 135.5,375C 111.594,375.827 87.7608,375.66 64,374.5C 44.5207,342.561 33.354,307.894 30.5,270.5 Z M 151.5,270.5 C 181.167,270.5 210.833,270.5 240.5,270.5C 240.5,305.5 240.5,340.5 240.5,375.5C 216.158,375.833 191.824,375.5 167.5,374.5C 157.602,340.549 152.269,305.882 151.5,270.5 Z M 270.5,270.5 C 300.167,270.5 329.833,270.5 359.5,270.5C 358.731,305.882 353.398,340.549 343.5,374.5C 319.176,375.5 294.842,375.833 270.5,375.5C 270.5,340.5 270.5,305.5 270.5,270.5 Z M 390.5,270.5 C 420.5,270.5 450.5,270.5 480.5,270.5C 477.646,307.894 466.479,342.561 447,374.5C 423.239,375.66 399.406,375.827 375.5,375C 384.928,340.838 389.928,306.005 390.5,270.5 Z M 87.5,406.5 C 106.659,405.503 125.993,405.17 145.5,405.5C 147.833,412.994 150.666,420.327 154,427.5C 160.653,441.168 167.987,454.168 176,466.5C 141.987,453.083 112.487,433.083 87.5,406.5 Z M 178.5,406.5 C 198.993,405.503 219.66,405.169 240.5,405.5C 240.667,429.836 240.5,454.169 240,478.5C 219.462,467.963 203.462,452.63 192,432.5C 187.2,423.898 182.7,415.231 178.5,406.5 Z M 270.5,405.5 C 291.169,405.333 311.836,405.5 332.5,406C 322.955,429.43 308.955,449.764 290.5,467C 284.379,471.477 277.879,475.31 271,478.5C 270.5,454.169 270.333,429.836 270.5,405.5 Z M 365.5,405.5 C 384.836,405.333 404.17,405.5 423.5,406C 398.67,432.998 369.17,453.165 335,466.5C 340.005,457.519 345.339,448.519 351,439.5C 356.679,428.482 361.512,417.149 365.5,405.5 Z"/></g>
</svg>
